<mxfile host="Electron" agent="Mozilla/5.0 (X11; Linux x86_64) AppleWebKit/537.36 (KHTML, like Gecko) draw.io/26.0.9 Chrome/128.0.6613.186 Electron/32.2.5 Safari/537.36" version="26.0.9" pages="6">
  <diagram id="mZm5I4HDHUPFxAiLhPre" name="template-pickplace">
    <mxGraphModel dx="2074" dy="1214" grid="1" gridSize="10" guides="1" tooltips="1" connect="1" arrows="1" fold="1" page="1" pageScale="1" pageWidth="1100" pageHeight="850" math="0" shadow="0">
      <root>
        <mxCell id="0" />
        <mxCell id="1" parent="0" />
        <mxCell id="ZzmJWUEzzByLViqBWZ7q-1" value="given" style="edgeStyle=orthogonalEdgeStyle;shape=connector;rounded=1;orthogonalLoop=1;jettySize=auto;html=1;labelBackgroundColor=default;strokeColor=default;align=center;verticalAlign=middle;fontFamily=Helvetica;fontSize=11;fontColor=default;endArrow=classic;" parent="1" source="ZzmJWUEzzByLViqBWZ7q-4" target="ZzmJWUEzzByLViqBWZ7q-5" edge="1">
          <mxGeometry x="0.6364" y="10" relative="1" as="geometry">
            <Array as="points">
              <mxPoint x="410" y="490" />
              <mxPoint x="410" y="440" />
            </Array>
            <mxPoint as="offset" />
          </mxGeometry>
        </mxCell>
        <mxCell id="ZzmJWUEzzByLViqBWZ7q-2" value="when" style="edgeStyle=orthogonalEdgeStyle;shape=connector;rounded=1;orthogonalLoop=1;jettySize=auto;html=1;labelBackgroundColor=default;strokeColor=default;align=center;verticalAlign=middle;fontFamily=Helvetica;fontSize=11;fontColor=default;endArrow=classic;" parent="1" source="ZzmJWUEzzByLViqBWZ7q-4" target="ZzmJWUEzzByLViqBWZ7q-6" edge="1">
          <mxGeometry x="0.2" y="10" relative="1" as="geometry">
            <mxPoint as="offset" />
          </mxGeometry>
        </mxCell>
        <mxCell id="ZzmJWUEzzByLViqBWZ7q-3" value="then" style="edgeStyle=orthogonalEdgeStyle;shape=connector;rounded=1;orthogonalLoop=1;jettySize=auto;html=1;labelBackgroundColor=default;strokeColor=default;align=center;verticalAlign=middle;fontFamily=Helvetica;fontSize=11;fontColor=default;endArrow=classic;" parent="1" source="ZzmJWUEzzByLViqBWZ7q-4" target="ZzmJWUEzzByLViqBWZ7q-7" edge="1">
          <mxGeometry x="0.6364" y="10" relative="1" as="geometry">
            <Array as="points">
              <mxPoint x="410" y="490" />
              <mxPoint x="410" y="540" />
            </Array>
            <mxPoint as="offset" />
          </mxGeometry>
        </mxCell>
        <mxCell id="ZzmJWUEzzByLViqBWZ7q-4" value="scenario-pickplace: Scenario" style="rounded=1;whiteSpace=wrap;html=1;" parent="1" vertex="1">
          <mxGeometry x="270" y="470" width="120" height="40" as="geometry" />
        </mxCell>
        <mxCell id="ZzmJWUEzzByLViqBWZ7q-5" value="pickplace-given: GivenClause" style="rounded=1;whiteSpace=wrap;html=1;" parent="1" vertex="1">
          <mxGeometry x="450" y="420" width="100" height="40" as="geometry" />
        </mxCell>
        <mxCell id="ZzmJWUEzzByLViqBWZ7q-6" value="pickplace-when: WhenClause" style="rounded=1;whiteSpace=wrap;html=1;" parent="1" vertex="1">
          <mxGeometry x="450" y="470" width="100" height="40" as="geometry" />
        </mxCell>
        <mxCell id="ZzmJWUEzzByLViqBWZ7q-7" value="pickplace-then: ThenClause" style="rounded=1;whiteSpace=wrap;html=1;" parent="1" vertex="1">
          <mxGeometry x="450" y="520" width="100" height="40" as="geometry" />
        </mxCell>
        <mxCell id="ZzmJWUEzzByLViqBWZ7q-8" value="of-scenario" style="edgeStyle=orthogonalEdgeStyle;shape=connector;rounded=1;orthogonalLoop=1;jettySize=auto;html=1;labelBackgroundColor=default;strokeColor=default;align=center;verticalAlign=middle;fontFamily=Helvetica;fontSize=11;fontColor=default;endArrow=classic;" parent="1" source="ZzmJWUEzzByLViqBWZ7q-9" target="ZzmJWUEzzByLViqBWZ7q-4" edge="1">
          <mxGeometry relative="1" as="geometry" />
        </mxCell>
        <mxCell id="0NveaVGe-O1092bYHAS5-14" value="has-clause" style="edgeStyle=orthogonalEdgeStyle;shape=connector;rounded=1;orthogonalLoop=1;jettySize=auto;html=1;labelBackgroundColor=default;strokeColor=default;align=center;verticalAlign=middle;fontFamily=Helvetica;fontSize=11;fontColor=default;endArrow=classic;" parent="1" source="ZzmJWUEzzByLViqBWZ7q-9" target="0NveaVGe-O1092bYHAS5-7" edge="1">
          <mxGeometry relative="1" as="geometry">
            <Array as="points">
              <mxPoint x="330" y="700" />
              <mxPoint x="790" y="700" />
              <mxPoint x="790" y="540" />
            </Array>
          </mxGeometry>
        </mxCell>
        <mxCell id="ZzmJWUEzzByLViqBWZ7q-9" value="pickplace-tmpl: ScenarioTemplate" style="rounded=1;whiteSpace=wrap;html=1;" parent="1" vertex="1">
          <mxGeometry x="270" y="580" width="120" height="40" as="geometry" />
        </mxCell>
        <mxCell id="0NveaVGe-O1092bYHAS5-18" value="predicate" style="edgeStyle=orthogonalEdgeStyle;shape=connector;rounded=1;orthogonalLoop=1;jettySize=auto;html=1;labelBackgroundColor=default;strokeColor=default;align=center;verticalAlign=middle;fontFamily=Helvetica;fontSize=11;fontColor=default;endArrow=classic;" parent="1" source="ZzmJWUEzzByLViqBWZ7q-13" target="0NveaVGe-O1092bYHAS5-16" edge="1">
          <mxGeometry relative="1" as="geometry" />
        </mxCell>
        <mxCell id="0NveaVGe-O1092bYHAS5-19" value="when" style="edgeStyle=orthogonalEdgeStyle;shape=connector;rounded=1;orthogonalLoop=1;jettySize=auto;html=1;labelBackgroundColor=default;strokeColor=default;align=center;verticalAlign=middle;fontFamily=Helvetica;fontSize=11;fontColor=default;endArrow=classic;" parent="1" source="ZzmJWUEzzByLViqBWZ7q-13" target="0NveaVGe-O1092bYHAS5-17" edge="1">
          <mxGeometry relative="1" as="geometry" />
        </mxCell>
        <mxCell id="ZzmJWUEzzByLViqBWZ7q-13" value="fluent-obj-held-by-robot: HoldPredicate" style="rounded=1;whiteSpace=wrap;html=1;" parent="1" vertex="1">
          <mxGeometry x="870" y="520" width="140" height="40" as="geometry" />
        </mxCell>
        <mxCell id="0NveaVGe-O1092bYHAS5-4" value="ref-workspace" style="edgeStyle=orthogonalEdgeStyle;rounded=1;orthogonalLoop=1;jettySize=auto;html=1;" parent="1" source="0NveaVGe-O1092bYHAS5-7" target="0NveaVGe-O1092bYHAS5-11" edge="1">
          <mxGeometry x="0.5" y="-10" relative="1" as="geometry">
            <Array as="points">
              <mxPoint x="610" y="540" />
              <mxPoint x="610" y="600" />
            </Array>
            <mxPoint as="offset" />
            <mxPoint x="550" y="600" as="targetPoint" />
          </mxGeometry>
        </mxCell>
        <mxCell id="0NveaVGe-O1092bYHAS5-5" value="clause-of" style="edgeStyle=orthogonalEdgeStyle;rounded=1;orthogonalLoop=1;jettySize=auto;html=1;" parent="1" source="0NveaVGe-O1092bYHAS5-7" target="ZzmJWUEzzByLViqBWZ7q-7" edge="1">
          <mxGeometry y="-10" relative="1" as="geometry">
            <Array as="points" />
            <mxPoint as="offset" />
            <mxPoint x="580" y="540" as="targetPoint" />
          </mxGeometry>
        </mxCell>
        <mxCell id="0NveaVGe-O1092bYHAS5-6" value="holds" style="edgeStyle=orthogonalEdgeStyle;rounded=1;orthogonalLoop=1;jettySize=auto;html=1;labelBackgroundColor=default;" parent="1" source="0NveaVGe-O1092bYHAS5-7" target="0NveaVGe-O1092bYHAS5-8" edge="1">
          <mxGeometry relative="1" as="geometry">
            <Array as="points">
              <mxPoint x="640" y="530" />
              <mxPoint x="640" y="530" />
            </Array>
          </mxGeometry>
        </mxCell>
        <mxCell id="0NveaVGe-O1092bYHAS5-20" value="has-fluent-predicate" style="edgeStyle=orthogonalEdgeStyle;shape=connector;rounded=1;orthogonalLoop=1;jettySize=auto;html=1;labelBackgroundColor=default;strokeColor=default;align=center;verticalAlign=middle;fontFamily=Helvetica;fontSize=11;fontColor=default;endArrow=classic;dashed=1;dashPattern=8 8;" parent="1" source="0NveaVGe-O1092bYHAS5-7" target="ZzmJWUEzzByLViqBWZ7q-13" edge="1">
          <mxGeometry y="20" relative="1" as="geometry">
            <mxPoint x="790" y="530" as="sourcePoint" />
            <mxPoint x="910" y="530" as="targetPoint" />
            <Array as="points">
              <mxPoint x="830" y="530" />
              <mxPoint x="830" y="530" />
            </Array>
            <mxPoint as="offset" />
          </mxGeometry>
        </mxCell>
        <mxCell id="0NveaVGe-O1092bYHAS5-7" value="clause-obj-at-place-ws: FluentClause" style="rounded=1;whiteSpace=wrap;html=1;" parent="1" vertex="1">
          <mxGeometry x="630" y="520" width="140" height="40" as="geometry" />
        </mxCell>
        <mxCell id="0NveaVGe-O1092bYHAS5-8" value="pred-obj-located-at-ws: LocatedAtPredicate" style="rounded=1;whiteSpace=wrap;html=1;" parent="1" vertex="1">
          <mxGeometry x="630" y="440" width="140" height="40" as="geometry" />
        </mxCell>
        <mxCell id="0NveaVGe-O1092bYHAS5-9" value="after-place: TimeConstraint" style="rounded=1;whiteSpace=wrap;html=1;" parent="1" vertex="1">
          <mxGeometry x="640" y="600" width="120" height="40" as="geometry" />
        </mxCell>
        <mxCell id="0NveaVGe-O1092bYHAS5-10" value="ref-object" style="edgeStyle=orthogonalEdgeStyle;rounded=1;orthogonalLoop=1;jettySize=auto;html=1;" parent="1" source="0NveaVGe-O1092bYHAS5-7" target="0NveaVGe-O1092bYHAS5-12" edge="1">
          <mxGeometry x="0.6364" y="-10" relative="1" as="geometry">
            <Array as="points">
              <mxPoint x="610" y="540" />
              <mxPoint x="610" y="660" />
            </Array>
            <mxPoint as="offset" />
            <mxPoint x="550" y="660" as="targetPoint" />
          </mxGeometry>
        </mxCell>
        <mxCell id="0NveaVGe-O1092bYHAS5-11" value="place-ws: ScenarioTaskVariable" style="rounded=1;whiteSpace=wrap;html=1;" parent="1" vertex="1">
          <mxGeometry x="410" y="580" width="120" height="40" as="geometry" />
        </mxCell>
        <mxCell id="0NveaVGe-O1092bYHAS5-12" value="target-obj: ScenarioTaskVariable" style="rounded=1;whiteSpace=wrap;html=1;" parent="1" vertex="1">
          <mxGeometry x="410" y="640" width="120" height="40" as="geometry" />
        </mxCell>
        <mxCell id="0NveaVGe-O1092bYHAS5-13" value="when" style="edgeStyle=orthogonalEdgeStyle;rounded=1;orthogonalLoop=1;jettySize=auto;html=1;labelBackgroundColor=default;" parent="1" source="0NveaVGe-O1092bYHAS5-7" target="0NveaVGe-O1092bYHAS5-9" edge="1">
          <mxGeometry x="-0.1429" relative="1" as="geometry">
            <Array as="points" />
            <mxPoint as="offset" />
            <mxPoint x="450" y="400" as="sourcePoint" />
            <mxPoint x="450" y="450" as="targetPoint" />
          </mxGeometry>
        </mxCell>
        <mxCell id="Fp7tlIKHTd0HltPRGi4E-14" value="ref-object" style="edgeStyle=orthogonalEdgeStyle;shape=connector;rounded=1;orthogonalLoop=1;jettySize=auto;html=1;labelBackgroundColor=default;strokeColor=default;align=center;verticalAlign=middle;fontFamily=Helvetica;fontSize=11;fontColor=default;endArrow=classic;" parent="1" source="0NveaVGe-O1092bYHAS5-16" target="Fp7tlIKHTd0HltPRGi4E-13" edge="1">
          <mxGeometry relative="1" as="geometry" />
        </mxCell>
        <mxCell id="0NveaVGe-O1092bYHAS5-16" value="pred-obj-located-at-ws: LocatedAtPredicate" style="rounded=1;whiteSpace=wrap;html=1;" parent="1" vertex="1">
          <mxGeometry x="870" y="440" width="140" height="40" as="geometry" />
        </mxCell>
        <mxCell id="0NveaVGe-O1092bYHAS5-17" value="after-place: TimeConstraint" style="rounded=1;whiteSpace=wrap;html=1;" parent="1" vertex="1">
          <mxGeometry x="880" y="600" width="120" height="40" as="geometry" />
        </mxCell>
        <mxCell id="Fp7tlIKHTd0HltPRGi4E-1" value="has-criteria" style="edgeStyle=orthogonalEdgeStyle;rounded=1;orthogonalLoop=1;jettySize=auto;html=1;labelBackgroundColor=default;" parent="1" source="Fp7tlIKHTd0HltPRGi4E-2" target="Fp7tlIKHTd0HltPRGi4E-7" edge="1">
          <mxGeometry relative="1" as="geometry" />
        </mxCell>
        <mxCell id="Fp7tlIKHTd0HltPRGi4E-2" value="us-single-arm: UserStory" style="rounded=1;whiteSpace=wrap;html=1;" parent="1" vertex="1">
          <mxGeometry x="90" y="500" width="120" height="40" as="geometry" />
        </mxCell>
        <mxCell id="Fp7tlIKHTd0HltPRGi4E-3" value="can-be" style="edgeStyle=orthogonalEdgeStyle;rounded=1;orthogonalLoop=1;jettySize=auto;html=1;labelBackgroundColor=default;" parent="1" source="Fp7tlIKHTd0HltPRGi4E-4" target="Fp7tlIKHTd0HltPRGi4E-5" edge="1">
          <mxGeometry relative="1" as="geometry">
            <mxPoint as="offset" />
          </mxGeometry>
        </mxCell>
        <mxCell id="Fp7tlIKHTd0HltPRGi4E-9" value="of-object" style="edgeStyle=orthogonalEdgeStyle;shape=connector;rounded=1;orthogonalLoop=1;jettySize=auto;html=1;labelBackgroundColor=default;strokeColor=default;align=center;verticalAlign=middle;fontFamily=Helvetica;fontSize=11;fontColor=default;endArrow=classic;jumpStyle=arc;" parent="1" source="Fp7tlIKHTd0HltPRGi4E-4" target="0NveaVGe-O1092bYHAS5-12" edge="1">
          <mxGeometry x="-0.7273" y="10" relative="1" as="geometry">
            <Array as="points">
              <mxPoint x="290" y="680" />
              <mxPoint x="290" y="660" />
            </Array>
            <mxPoint as="offset" />
          </mxGeometry>
        </mxCell>
        <mxCell id="Fp7tlIKHTd0HltPRGi4E-4" value="obj-variation: TaskVariation" style="rounded=1;whiteSpace=wrap;html=1;" parent="1" vertex="1">
          <mxGeometry x="90" y="660" width="120" height="40" as="geometry" />
        </mxCell>
        <mxCell id="Fp7tlIKHTd0HltPRGi4E-5" value="bottle:&lt;br&gt;Object" style="rounded=1;whiteSpace=wrap;html=1;" parent="1" vertex="1">
          <mxGeometry x="90" y="740" width="120" height="40" as="geometry" />
        </mxCell>
        <mxCell id="Fp7tlIKHTd0HltPRGi4E-6" value="has-variation" style="edgeStyle=orthogonalEdgeStyle;rounded=1;orthogonalLoop=1;jettySize=auto;html=1;labelBackgroundColor=default;" parent="1" source="Fp7tlIKHTd0HltPRGi4E-7" target="Fp7tlIKHTd0HltPRGi4E-4" edge="1">
          <mxGeometry relative="1" as="geometry">
            <Array as="points">
              <mxPoint x="147.5" y="680" />
              <mxPoint x="147.5" y="680" />
            </Array>
          </mxGeometry>
        </mxCell>
        <mxCell id="Fp7tlIKHTd0HltPRGi4E-8" value="of-template" style="edgeStyle=orthogonalEdgeStyle;shape=connector;rounded=1;orthogonalLoop=1;jettySize=auto;html=1;labelBackgroundColor=default;strokeColor=default;align=center;verticalAlign=middle;fontFamily=Helvetica;fontSize=11;fontColor=default;endArrow=classic;" parent="1" source="Fp7tlIKHTd0HltPRGi4E-7" target="ZzmJWUEzzByLViqBWZ7q-9" edge="1">
          <mxGeometry y="10" relative="1" as="geometry">
            <mxPoint as="offset" />
          </mxGeometry>
        </mxCell>
        <mxCell id="Fp7tlIKHTd0HltPRGi4E-7" value="pickplace-hbrs: ScenarioVariant" style="rounded=1;whiteSpace=wrap;html=1;" parent="1" vertex="1">
          <mxGeometry x="90" y="580" width="120" height="40" as="geometry" />
        </mxCell>
        <mxCell id="Fp7tlIKHTd0HltPRGi4E-13" value="target-object: ScenarioVariable" style="rounded=1;whiteSpace=wrap;html=1;" parent="1" vertex="1">
          <mxGeometry x="880" y="360" width="120" height="40" as="geometry" />
        </mxCell>
        <mxCell id="Fp7tlIKHTd0HltPRGi4E-15" value="&lt;h1 style=&quot;font-size: 18px;&quot;&gt;Fluent Formulation&lt;/h1&gt;&lt;pre style=&quot;&quot;&gt;&lt;font style=&quot;&quot;&gt;&lt;span style=&quot;background-color: initial; white-space: normal;&quot;&gt;&lt;font style=&quot;font-size: 9px;&quot; face=&quot;Courier New&quot;&gt;holdsAt(locatedAt(target-obj, place-ws), t)&lt;/font&gt;&lt;/span&gt;&lt;span style=&quot;font-size: 10px;&quot;&gt;&lt;br&gt;&lt;/span&gt;&lt;/font&gt;&lt;/pre&gt;&lt;pre style=&quot;font-size: 10px;&quot;&gt;&lt;font style=&quot;font-size: 10px;&quot; face=&quot;Helvetica&quot;&gt;&lt;span style=&quot;font-size: 10px;&quot;&gt;* implies that there&#39;s no &quot;action&quot;/&quot;event&quot; that terminates&lt;br&gt; locatedAt() when formalized in event calculus&lt;/span&gt;&lt;/font&gt;&lt;/pre&gt;&lt;pre&gt;&lt;font style=&quot;font-size: 10px;&quot; face=&quot;Helvetica&quot;&gt;* in situation calculus, t is &quot;situation&quot;, i.e. be sequence of&lt;br&gt;states or actions,&lt;br&gt;e.g. &lt;/font&gt;&lt;font style=&quot;font-size: 9px;&quot; face=&quot;Courier New&quot;&gt;do(place(target-obj, place-ws), do(pick(...), S0))&lt;/font&gt;&lt;/pre&gt;&lt;pre&gt;neg(holdsAt(human-present(place-ws), t))&lt;/pre&gt;" style="text;html=1;strokeColor=default;fillColor=none;spacing=5;spacingTop=-20;whiteSpace=wrap;overflow=hidden;rounded=0;fontSize=11;fontFamily=Helvetica;fontColor=default;" parent="1" vertex="1">
          <mxGeometry x="790" y="20" width="300" height="190" as="geometry" />
        </mxCell>
        <mxCell id="_l0sM3Si1hhq1ANNyyF0-1" value="&lt;h1 style=&quot;font-size: 16px;&quot;&gt;Design decisions&lt;/h1&gt;&lt;p&gt;- realize fluent fully or as composition (like current state)?&lt;/p&gt;&lt;p&gt;- how to allow different representation of &quot;time&quot;&lt;/p&gt;" style="text;html=1;strokeColor=none;fillColor=none;spacing=5;spacingTop=-20;whiteSpace=wrap;overflow=hidden;rounded=0;fontSize=11;fontFamily=Helvetica;fontColor=default;" parent="1" vertex="1">
          <mxGeometry x="580" y="20" width="200" height="120" as="geometry" />
        </mxCell>
        <mxCell id="z9TbplSHsa-WU9eoHDxc-1" value="given" style="edgeStyle=orthogonalEdgeStyle;shape=connector;rounded=1;orthogonalLoop=1;jettySize=auto;html=1;labelBackgroundColor=default;strokeColor=default;align=center;verticalAlign=middle;fontFamily=Helvetica;fontSize=11;fontColor=default;endArrow=classic;" parent="1" source="z9TbplSHsa-WU9eoHDxc-4" target="z9TbplSHsa-WU9eoHDxc-5" edge="1">
          <mxGeometry x="0.6364" y="10" relative="1" as="geometry">
            <Array as="points">
              <mxPoint x="170" y="100" />
              <mxPoint x="170" y="50" />
            </Array>
            <mxPoint as="offset" />
          </mxGeometry>
        </mxCell>
        <mxCell id="z9TbplSHsa-WU9eoHDxc-2" value="when" style="edgeStyle=orthogonalEdgeStyle;shape=connector;rounded=1;orthogonalLoop=1;jettySize=auto;html=1;labelBackgroundColor=default;strokeColor=default;align=center;verticalAlign=middle;fontFamily=Helvetica;fontSize=11;fontColor=default;endArrow=classic;" parent="1" source="z9TbplSHsa-WU9eoHDxc-4" target="z9TbplSHsa-WU9eoHDxc-6" edge="1">
          <mxGeometry x="0.2" y="10" relative="1" as="geometry">
            <mxPoint as="offset" />
          </mxGeometry>
        </mxCell>
        <mxCell id="z9TbplSHsa-WU9eoHDxc-3" value="then" style="edgeStyle=orthogonalEdgeStyle;shape=connector;rounded=1;orthogonalLoop=1;jettySize=auto;html=1;labelBackgroundColor=default;strokeColor=default;align=center;verticalAlign=middle;fontFamily=Helvetica;fontSize=11;fontColor=default;endArrow=classic;" parent="1" source="z9TbplSHsa-WU9eoHDxc-4" target="z9TbplSHsa-WU9eoHDxc-7" edge="1">
          <mxGeometry x="0.6364" y="10" relative="1" as="geometry">
            <Array as="points">
              <mxPoint x="170" y="100" />
              <mxPoint x="170" y="150" />
            </Array>
            <mxPoint as="offset" />
          </mxGeometry>
        </mxCell>
        <mxCell id="z9TbplSHsa-WU9eoHDxc-4" value="scenario-pickplace: Scenario" style="rounded=1;whiteSpace=wrap;html=1;" parent="1" vertex="1">
          <mxGeometry x="30" y="80" width="120" height="40" as="geometry" />
        </mxCell>
        <mxCell id="z9TbplSHsa-WU9eoHDxc-5" value="pickplace-given: GivenClause" style="rounded=1;whiteSpace=wrap;html=1;" parent="1" vertex="1">
          <mxGeometry x="210" y="30" width="100" height="40" as="geometry" />
        </mxCell>
        <mxCell id="z9TbplSHsa-WU9eoHDxc-6" value="pickplace-when: WhenClause" style="rounded=1;whiteSpace=wrap;html=1;" parent="1" vertex="1">
          <mxGeometry x="210" y="80" width="100" height="40" as="geometry" />
        </mxCell>
        <mxCell id="z9TbplSHsa-WU9eoHDxc-7" value="pickplace-then: ThenClause" style="rounded=1;whiteSpace=wrap;html=1;" parent="1" vertex="1">
          <mxGeometry x="210" y="130" width="100" height="40" as="geometry" />
        </mxCell>
        <mxCell id="z9TbplSHsa-WU9eoHDxc-8" value="of-scenario" style="edgeStyle=orthogonalEdgeStyle;shape=connector;rounded=1;orthogonalLoop=1;jettySize=auto;html=1;labelBackgroundColor=default;strokeColor=default;align=center;verticalAlign=middle;fontFamily=Helvetica;fontSize=11;fontColor=default;endArrow=classic;" parent="1" source="z9TbplSHsa-WU9eoHDxc-10" target="z9TbplSHsa-WU9eoHDxc-4" edge="1">
          <mxGeometry relative="1" as="geometry" />
        </mxCell>
        <mxCell id="z9TbplSHsa-WU9eoHDxc-9" value="has-clause" style="edgeStyle=orthogonalEdgeStyle;shape=connector;rounded=1;orthogonalLoop=1;jettySize=auto;html=1;labelBackgroundColor=default;strokeColor=default;align=center;verticalAlign=middle;fontFamily=Helvetica;fontSize=11;fontColor=default;endArrow=classic;" parent="1" source="z9TbplSHsa-WU9eoHDxc-10" target="z9TbplSHsa-WU9eoHDxc-14" edge="1">
          <mxGeometry relative="1" as="geometry">
            <Array as="points">
              <mxPoint x="90" y="310" />
              <mxPoint x="550" y="310" />
              <mxPoint x="550" y="150" />
            </Array>
          </mxGeometry>
        </mxCell>
        <mxCell id="z9TbplSHsa-WU9eoHDxc-10" value="pickplace-tmpl: ScenarioTemplate" style="rounded=1;whiteSpace=wrap;html=1;" parent="1" vertex="1">
          <mxGeometry x="30" y="190" width="120" height="40" as="geometry" />
        </mxCell>
        <mxCell id="z9TbplSHsa-WU9eoHDxc-11" value="ref-workspace" style="edgeStyle=orthogonalEdgeStyle;rounded=1;orthogonalLoop=1;jettySize=auto;html=1;" parent="1" source="z9TbplSHsa-WU9eoHDxc-14" target="z9TbplSHsa-WU9eoHDxc-18" edge="1">
          <mxGeometry x="0.5" y="-10" relative="1" as="geometry">
            <Array as="points">
              <mxPoint x="370" y="150" />
              <mxPoint x="370" y="210" />
            </Array>
            <mxPoint as="offset" />
            <mxPoint x="310" y="210" as="targetPoint" />
          </mxGeometry>
        </mxCell>
        <mxCell id="z9TbplSHsa-WU9eoHDxc-12" value="clause-of" style="edgeStyle=orthogonalEdgeStyle;rounded=1;orthogonalLoop=1;jettySize=auto;html=1;" parent="1" source="z9TbplSHsa-WU9eoHDxc-14" target="z9TbplSHsa-WU9eoHDxc-7" edge="1">
          <mxGeometry y="-10" relative="1" as="geometry">
            <Array as="points" />
            <mxPoint as="offset" />
            <mxPoint x="340" y="150" as="targetPoint" />
          </mxGeometry>
        </mxCell>
        <mxCell id="z9TbplSHsa-WU9eoHDxc-13" value="predicate" style="edgeStyle=orthogonalEdgeStyle;rounded=1;orthogonalLoop=1;jettySize=auto;html=1;labelBackgroundColor=default;" parent="1" source="z9TbplSHsa-WU9eoHDxc-14" target="z9TbplSHsa-WU9eoHDxc-15" edge="1">
          <mxGeometry relative="1" as="geometry">
            <Array as="points">
              <mxPoint x="400" y="140" />
              <mxPoint x="400" y="140" />
            </Array>
            <mxPoint as="offset" />
          </mxGeometry>
        </mxCell>
        <mxCell id="z9TbplSHsa-WU9eoHDxc-14" value="clause-obj-at-place-ws: FluentClause" style="rounded=1;whiteSpace=wrap;html=1;" parent="1" vertex="1">
          <mxGeometry x="390" y="130" width="140" height="40" as="geometry" />
        </mxCell>
        <mxCell id="z9TbplSHsa-WU9eoHDxc-15" value="pred-obj-located-at-ws: LocatedAtPredicate" style="rounded=1;whiteSpace=wrap;html=1;" parent="1" vertex="1">
          <mxGeometry x="390" y="50" width="140" height="40" as="geometry" />
        </mxCell>
        <mxCell id="z9TbplSHsa-WU9eoHDxc-16" value="after-place: TimeConstraint" style="rounded=1;whiteSpace=wrap;html=1;" parent="1" vertex="1">
          <mxGeometry x="400" y="210" width="120" height="40" as="geometry" />
        </mxCell>
        <mxCell id="z9TbplSHsa-WU9eoHDxc-17" value="ref-object" style="edgeStyle=orthogonalEdgeStyle;rounded=1;orthogonalLoop=1;jettySize=auto;html=1;" parent="1" source="z9TbplSHsa-WU9eoHDxc-14" target="z9TbplSHsa-WU9eoHDxc-19" edge="1">
          <mxGeometry x="0.6364" y="-10" relative="1" as="geometry">
            <Array as="points">
              <mxPoint x="370" y="150" />
              <mxPoint x="370" y="270" />
            </Array>
            <mxPoint as="offset" />
            <mxPoint x="310" y="270" as="targetPoint" />
          </mxGeometry>
        </mxCell>
        <mxCell id="z9TbplSHsa-WU9eoHDxc-18" value="place-ws: ScenarioTaskVariable" style="rounded=1;whiteSpace=wrap;html=1;" parent="1" vertex="1">
          <mxGeometry x="170" y="190" width="120" height="40" as="geometry" />
        </mxCell>
        <mxCell id="z9TbplSHsa-WU9eoHDxc-19" value="target-obj: ScenarioTaskVariable" style="rounded=1;whiteSpace=wrap;html=1;" parent="1" vertex="1">
          <mxGeometry x="170" y="250" width="120" height="40" as="geometry" />
        </mxCell>
        <mxCell id="z9TbplSHsa-WU9eoHDxc-20" value="when" style="edgeStyle=orthogonalEdgeStyle;rounded=1;orthogonalLoop=1;jettySize=auto;html=1;labelBackgroundColor=default;" parent="1" source="z9TbplSHsa-WU9eoHDxc-14" target="z9TbplSHsa-WU9eoHDxc-16" edge="1">
          <mxGeometry x="-0.1429" relative="1" as="geometry">
            <Array as="points" />
            <mxPoint as="offset" />
            <mxPoint x="210" y="10" as="sourcePoint" />
            <mxPoint x="210" y="60" as="targetPoint" />
          </mxGeometry>
        </mxCell>
      </root>
    </mxGraphModel>
  </diagram>
  <diagram name="template with 2 isHeld" id="Nf1N6WTXsQHABSyHZVWq">
    <mxGraphModel dx="1430" dy="837" grid="1" gridSize="10" guides="1" tooltips="1" connect="1" arrows="1" fold="1" page="1" pageScale="1" pageWidth="1100" pageHeight="850" math="0" shadow="0">
      <root>
        <mxCell id="lIPDusJt4NauTRWlpilD-0" />
        <mxCell id="lIPDusJt4NauTRWlpilD-1" parent="lIPDusJt4NauTRWlpilD-0" />
        <mxCell id="t5MGDlLj7Hj9ldxD_cXc-31" value="holds-at" style="edgeStyle=orthogonalEdgeStyle;shape=connector;rounded=1;orthogonalLoop=1;jettySize=auto;html=1;labelBackgroundColor=default;strokeColor=default;align=center;verticalAlign=middle;fontFamily=Helvetica;fontSize=14;fontColor=default;endArrow=classic;" parent="lIPDusJt4NauTRWlpilD-1" source="t5MGDlLj7Hj9ldxD_cXc-33" target="t5MGDlLj7Hj9ldxD_cXc-35" edge="1">
          <mxGeometry y="30" relative="1" as="geometry">
            <Array as="points">
              <mxPoint x="280" y="440" />
              <mxPoint x="280" y="440" />
            </Array>
            <mxPoint as="offset" />
          </mxGeometry>
        </mxCell>
        <mxCell id="t5MGDlLj7Hj9ldxD_cXc-32" value="clause-of" style="edgeStyle=orthogonalEdgeStyle;shape=connector;rounded=1;orthogonalLoop=1;jettySize=auto;html=1;labelBackgroundColor=default;strokeColor=default;align=center;verticalAlign=middle;fontFamily=Helvetica;fontSize=14;fontColor=default;endArrow=classic;" parent="lIPDusJt4NauTRWlpilD-1" source="t5MGDlLj7Hj9ldxD_cXc-33" target="t5MGDlLj7Hj9ldxD_cXc-39" edge="1">
          <mxGeometry x="1" y="-36" relative="1" as="geometry">
            <Array as="points">
              <mxPoint x="190" y="330" />
              <mxPoint x="190" y="270" />
            </Array>
            <mxPoint x="20" y="-6" as="offset" />
          </mxGeometry>
        </mxCell>
        <mxCell id="RJNv_k9YXOrejkAmGTdC-2" value="ref-object" style="edgeStyle=orthogonalEdgeStyle;shape=connector;rounded=1;orthogonalLoop=1;jettySize=auto;html=1;labelBackgroundColor=none;strokeColor=default;align=center;verticalAlign=middle;fontFamily=Helvetica;fontSize=14;fontColor=default;endArrow=classic;" parent="lIPDusJt4NauTRWlpilD-1" source="t5MGDlLj7Hj9ldxD_cXc-33" target="RJNv_k9YXOrejkAmGTdC-0" edge="1">
          <mxGeometry y="10" relative="1" as="geometry">
            <mxPoint as="offset" />
          </mxGeometry>
        </mxCell>
        <mxCell id="t5MGDlLj7Hj9ldxD_cXc-33" value="clause-obj-held-pick: FluentClause,&lt;br&gt;IsHeldPredicate" style="rounded=1;whiteSpace=wrap;html=1;fillColor=#6a00ff;strokeColor=#3700CC;fontSize=14;labelBackgroundColor=none;fontColor=#ffffff;" parent="lIPDusJt4NauTRWlpilD-1" vertex="1">
          <mxGeometry x="200" y="310" width="160" height="60" as="geometry" />
        </mxCell>
        <mxCell id="t5MGDlLj7Hj9ldxD_cXc-35" value="after-pick: TimeConstraint,&lt;br&gt;AfterEventConstraint" style="rounded=1;whiteSpace=wrap;html=1;fillColor=#1ba1e2;strokeColor=#006EAF;fontSize=14;labelBackgroundColor=none;fontColor=#ffffff;" parent="lIPDusJt4NauTRWlpilD-1" vertex="1">
          <mxGeometry x="200" y="400" width="160" height="60" as="geometry" />
        </mxCell>
        <mxCell id="t5MGDlLj7Hj9ldxD_cXc-36" value="then" style="edgeStyle=orthogonalEdgeStyle;shape=connector;rounded=1;orthogonalLoop=1;jettySize=auto;html=1;labelBackgroundColor=none;strokeColor=default;align=center;verticalAlign=middle;fontFamily=Helvetica;fontSize=14;fontColor=default;endArrow=classic;" parent="lIPDusJt4NauTRWlpilD-1" source="t5MGDlLj7Hj9ldxD_cXc-38" target="t5MGDlLj7Hj9ldxD_cXc-39" edge="1">
          <mxGeometry x="0.5556" y="-10" relative="1" as="geometry">
            <Array as="points">
              <mxPoint x="370" y="240" />
              <mxPoint x="370" y="270" />
            </Array>
            <mxPoint as="offset" />
          </mxGeometry>
        </mxCell>
        <mxCell id="t5MGDlLj7Hj9ldxD_cXc-37" value="when" style="edgeStyle=orthogonalEdgeStyle;shape=connector;rounded=1;orthogonalLoop=1;jettySize=auto;html=1;labelBackgroundColor=none;strokeColor=default;align=center;verticalAlign=middle;fontFamily=Helvetica;fontSize=14;fontColor=default;endArrow=classic;" parent="lIPDusJt4NauTRWlpilD-1" source="t5MGDlLj7Hj9ldxD_cXc-38" target="t5MGDlLj7Hj9ldxD_cXc-49" edge="1">
          <mxGeometry x="0.3333" y="-10" relative="1" as="geometry">
            <Array as="points">
              <mxPoint x="340" y="240" />
              <mxPoint x="340" y="240" />
            </Array>
            <mxPoint as="offset" />
          </mxGeometry>
        </mxCell>
        <mxCell id="t5MGDlLj7Hj9ldxD_cXc-38" value="scenario-pick: Scenario" style="rounded=1;whiteSpace=wrap;html=1;fillColor=#e51400;strokeColor=#B20000;fontSize=14;labelBackgroundColor=none;fontColor=#ffffff;" parent="lIPDusJt4NauTRWlpilD-1" vertex="1">
          <mxGeometry x="390" y="220" width="100" height="40" as="geometry" />
        </mxCell>
        <mxCell id="t5MGDlLj7Hj9ldxD_cXc-39" value="pick-then: Then" style="rounded=1;whiteSpace=wrap;html=1;fillColor=#e51400;strokeColor=#B20000;fontSize=14;labelBackgroundColor=none;fontColor=#ffffff;" parent="lIPDusJt4NauTRWlpilD-1" vertex="1">
          <mxGeometry x="210" y="260" width="120" height="20" as="geometry" />
        </mxCell>
        <mxCell id="RJNv_k9YXOrejkAmGTdC-3" value="ref-object" style="edgeStyle=orthogonalEdgeStyle;shape=connector;rounded=1;orthogonalLoop=1;jettySize=auto;html=1;labelBackgroundColor=none;strokeColor=default;align=center;verticalAlign=middle;fontFamily=Helvetica;fontSize=14;fontColor=default;endArrow=classic;" parent="lIPDusJt4NauTRWlpilD-1" source="t5MGDlLj7Hj9ldxD_cXc-41" target="RJNv_k9YXOrejkAmGTdC-0" edge="1">
          <mxGeometry y="-10" relative="1" as="geometry">
            <mxPoint as="offset" />
          </mxGeometry>
        </mxCell>
        <mxCell id="t5MGDlLj7Hj9ldxD_cXc-41" value="clause-obj-held-place: FluentClause,&lt;br&gt;IsHeldPredicate" style="rounded=1;whiteSpace=wrap;html=1;fillColor=#6a00ff;strokeColor=#3700CC;fontSize=14;labelBackgroundColor=none;fontColor=#ffffff;" parent="lIPDusJt4NauTRWlpilD-1" vertex="1">
          <mxGeometry x="640" y="310" width="160" height="60" as="geometry" />
        </mxCell>
        <mxCell id="t5MGDlLj7Hj9ldxD_cXc-43" value="before-place: TimeConstraint,&lt;br&gt;BeforeEventConstraint" style="rounded=1;whiteSpace=wrap;html=1;fillColor=#1ba1e2;strokeColor=#006EAF;fontSize=14;labelBackgroundColor=none;fontColor=#ffffff;" parent="lIPDusJt4NauTRWlpilD-1" vertex="1">
          <mxGeometry x="640" y="400" width="160" height="60" as="geometry" />
        </mxCell>
        <mxCell id="t5MGDlLj7Hj9ldxD_cXc-44" value="holds-at" style="edgeStyle=orthogonalEdgeStyle;shape=connector;rounded=1;orthogonalLoop=1;jettySize=auto;html=1;labelBackgroundColor=default;strokeColor=default;align=center;verticalAlign=middle;fontFamily=Helvetica;fontSize=14;fontColor=default;endArrow=classic;" parent="lIPDusJt4NauTRWlpilD-1" source="t5MGDlLj7Hj9ldxD_cXc-41" target="t5MGDlLj7Hj9ldxD_cXc-43" edge="1">
          <mxGeometry y="30" relative="1" as="geometry">
            <mxPoint x="280" y="430" as="sourcePoint" />
            <mxPoint x="280" y="470" as="targetPoint" />
            <mxPoint as="offset" />
            <Array as="points">
              <mxPoint x="660" y="440" />
              <mxPoint x="660" y="440" />
            </Array>
          </mxGeometry>
        </mxCell>
        <mxCell id="t5MGDlLj7Hj9ldxD_cXc-45" value="given" style="edgeStyle=orthogonalEdgeStyle;shape=connector;rounded=1;orthogonalLoop=1;jettySize=auto;html=1;labelBackgroundColor=none;strokeColor=default;align=center;verticalAlign=middle;fontFamily=Helvetica;fontSize=14;fontColor=default;endArrow=classic;" parent="lIPDusJt4NauTRWlpilD-1" source="t5MGDlLj7Hj9ldxD_cXc-46" target="t5MGDlLj7Hj9ldxD_cXc-47" edge="1">
          <mxGeometry x="0.5556" y="10" relative="1" as="geometry">
            <mxPoint as="offset" />
            <Array as="points">
              <mxPoint x="630" y="240" />
              <mxPoint x="630" y="210" />
            </Array>
          </mxGeometry>
        </mxCell>
        <mxCell id="6pkhHpWeM-1ykxrGjQIa-4" value="when" style="edgeStyle=orthogonalEdgeStyle;shape=connector;rounded=1;orthogonalLoop=1;jettySize=auto;html=1;labelBackgroundColor=none;strokeColor=default;align=center;verticalAlign=middle;fontFamily=Helvetica;fontSize=14;fontColor=default;endArrow=classic;" parent="lIPDusJt4NauTRWlpilD-1" source="t5MGDlLj7Hj9ldxD_cXc-46" target="6pkhHpWeM-1ykxrGjQIa-0" edge="1">
          <mxGeometry x="0.3333" y="10" relative="1" as="geometry">
            <mxPoint as="offset" />
          </mxGeometry>
        </mxCell>
        <mxCell id="6pkhHpWeM-1ykxrGjQIa-5" value="then" style="edgeStyle=orthogonalEdgeStyle;shape=connector;rounded=1;orthogonalLoop=1;jettySize=auto;html=1;labelBackgroundColor=none;strokeColor=default;align=center;verticalAlign=middle;fontFamily=Helvetica;fontSize=14;fontColor=default;endArrow=classic;" parent="lIPDusJt4NauTRWlpilD-1" source="t5MGDlLj7Hj9ldxD_cXc-46" target="6pkhHpWeM-1ykxrGjQIa-2" edge="1">
          <mxGeometry x="0.5556" y="10" relative="1" as="geometry">
            <Array as="points">
              <mxPoint x="630" y="240" />
              <mxPoint x="630" y="270" />
            </Array>
            <mxPoint as="offset" />
            <mxPoint x="669.9999999999995" y="270.0344827586207" as="targetPoint" />
          </mxGeometry>
        </mxCell>
        <mxCell id="t5MGDlLj7Hj9ldxD_cXc-46" value="scenario-place: Scenario" style="rounded=1;whiteSpace=wrap;html=1;fillColor=#e51400;strokeColor=#B20000;fontSize=14;labelBackgroundColor=none;fontColor=#ffffff;" parent="lIPDusJt4NauTRWlpilD-1" vertex="1">
          <mxGeometry x="510" y="220" width="100" height="40" as="geometry" />
        </mxCell>
        <mxCell id="t5MGDlLj7Hj9ldxD_cXc-47" value="place-given: Given" style="rounded=1;whiteSpace=wrap;html=1;fillColor=#e51400;strokeColor=#B20000;fontSize=14;labelBackgroundColor=none;fontColor=#ffffff;" parent="lIPDusJt4NauTRWlpilD-1" vertex="1">
          <mxGeometry x="670" y="200" width="120" height="20" as="geometry" />
        </mxCell>
        <mxCell id="t5MGDlLj7Hj9ldxD_cXc-48" value="pick-given: Given" style="rounded=1;whiteSpace=wrap;html=1;fillColor=#e51400;strokeColor=#B20000;fontSize=14;labelBackgroundColor=none;fontColor=#ffffff;" parent="lIPDusJt4NauTRWlpilD-1" vertex="1">
          <mxGeometry x="210" y="200" width="120" height="20" as="geometry" />
        </mxCell>
        <mxCell id="t5MGDlLj7Hj9ldxD_cXc-49" value="pick-when: When" style="rounded=1;whiteSpace=wrap;html=1;fillColor=#e51400;strokeColor=#B20000;fontSize=14;labelBackgroundColor=none;fontColor=#ffffff;" parent="lIPDusJt4NauTRWlpilD-1" vertex="1">
          <mxGeometry x="210" y="230" width="120" height="20" as="geometry" />
        </mxCell>
        <mxCell id="t5MGDlLj7Hj9ldxD_cXc-50" value="clause-of" style="edgeStyle=orthogonalEdgeStyle;shape=connector;rounded=1;orthogonalLoop=1;jettySize=auto;html=1;labelBackgroundColor=none;strokeColor=default;align=center;verticalAlign=middle;fontFamily=Helvetica;fontSize=14;fontColor=default;endArrow=classic;" parent="lIPDusJt4NauTRWlpilD-1" source="t5MGDlLj7Hj9ldxD_cXc-41" target="t5MGDlLj7Hj9ldxD_cXc-47" edge="1">
          <mxGeometry x="-0.4665" y="40" relative="1" as="geometry">
            <mxPoint x="280" y="390" as="sourcePoint" />
            <mxPoint x="280" y="350" as="targetPoint" />
            <Array as="points">
              <mxPoint x="810" y="330" />
              <mxPoint x="810" y="210" />
            </Array>
            <mxPoint as="offset" />
          </mxGeometry>
        </mxCell>
        <mxCell id="t5MGDlLj7Hj9ldxD_cXc-51" value="given" style="edgeStyle=orthogonalEdgeStyle;shape=connector;rounded=1;orthogonalLoop=1;jettySize=auto;html=1;labelBackgroundColor=none;strokeColor=default;align=center;verticalAlign=middle;fontFamily=Helvetica;fontSize=14;fontColor=default;endArrow=classic;" parent="lIPDusJt4NauTRWlpilD-1" source="t5MGDlLj7Hj9ldxD_cXc-38" target="t5MGDlLj7Hj9ldxD_cXc-48" edge="1">
          <mxGeometry x="0.5556" y="-10" relative="1" as="geometry">
            <Array as="points">
              <mxPoint x="370" y="240" />
              <mxPoint x="370" y="210" />
            </Array>
            <mxPoint as="offset" />
            <mxPoint x="230" y="-120" as="sourcePoint" />
            <mxPoint x="310" y="-170" as="targetPoint" />
          </mxGeometry>
        </mxCell>
        <mxCell id="RJNv_k9YXOrejkAmGTdC-0" value="target-object: ScenarioVariable" style="rounded=1;whiteSpace=wrap;html=1;fillColor=#9C8300;strokeColor=#635300;fontSize=14;labelBackgroundColor=none;fontColor=#ffffff;" parent="lIPDusJt4NauTRWlpilD-1" vertex="1">
          <mxGeometry x="440" y="320" width="120" height="40" as="geometry" />
        </mxCell>
        <mxCell id="6pkhHpWeM-1ykxrGjQIa-0" value="place-when: When" style="rounded=1;whiteSpace=wrap;html=1;fillColor=#e51400;strokeColor=#B20000;fontSize=14;labelBackgroundColor=none;fontColor=#ffffff;" parent="lIPDusJt4NauTRWlpilD-1" vertex="1">
          <mxGeometry x="670" y="230" width="120" height="20" as="geometry" />
        </mxCell>
        <mxCell id="6pkhHpWeM-1ykxrGjQIa-2" value="place-then: Then" style="rounded=1;whiteSpace=wrap;html=1;fillColor=#e51400;strokeColor=#B20000;fontSize=14;labelBackgroundColor=none;fontColor=#ffffff;" parent="lIPDusJt4NauTRWlpilD-1" vertex="1">
          <mxGeometry x="670" y="260" width="120" height="20" as="geometry" />
        </mxCell>
        <mxCell id="K12BtlhDVO1IIAHZEc-6-0" value="event" style="edgeStyle=orthogonalEdgeStyle;rounded=1;orthogonalLoop=1;jettySize=auto;html=1;strokeColor=default;align=center;verticalAlign=middle;fontFamily=Helvetica;fontSize=14;fontColor=default;labelBackgroundColor=none;endArrow=classic;" parent="lIPDusJt4NauTRWlpilD-1" source="t5MGDlLj7Hj9ldxD_cXc-35" target="F6CHB7oEcbr4vfuPOG_k-4" edge="1">
          <mxGeometry x="-0.4286" y="10" relative="1" as="geometry">
            <mxPoint as="offset" />
            <mxPoint x="350" y="560.0344827586207" as="sourcePoint" />
          </mxGeometry>
        </mxCell>
        <mxCell id="K12BtlhDVO1IIAHZEc-6-1" value="event" style="edgeStyle=orthogonalEdgeStyle;rounded=1;orthogonalLoop=1;jettySize=auto;html=1;strokeColor=default;align=center;verticalAlign=middle;fontFamily=Helvetica;fontSize=14;fontColor=default;labelBackgroundColor=none;endArrow=classic;" parent="lIPDusJt4NauTRWlpilD-1" source="t5MGDlLj7Hj9ldxD_cXc-43" target="F6CHB7oEcbr4vfuPOG_k-5" edge="1">
          <mxGeometry x="-0.4286" y="10" relative="1" as="geometry">
            <mxPoint as="offset" />
            <mxPoint x="589.9999999999995" y="560.0344827586207" as="sourcePoint" />
          </mxGeometry>
        </mxCell>
        <mxCell id="F6CHB7oEcbr4vfuPOG_k-4" value="evt-pick-end: Event" style="rounded=1;whiteSpace=wrap;html=1;fontSize=14;labelBackgroundColor=none;" parent="lIPDusJt4NauTRWlpilD-1" vertex="1">
          <mxGeometry x="430" y="440" width="140" height="20" as="geometry" />
        </mxCell>
        <mxCell id="F6CHB7oEcbr4vfuPOG_k-5" value="evt-place-start: Event" style="rounded=1;whiteSpace=wrap;html=1;fontSize=14;labelBackgroundColor=none;" parent="lIPDusJt4NauTRWlpilD-1" vertex="1">
          <mxGeometry x="430" y="400" width="140" height="20" as="geometry" />
        </mxCell>
      </root>
    </mxGraphModel>
  </diagram>
  <diagram name="template with 2 locatedAt" id="u5Upy4KLDStsrcEt6hdB">
    <mxGraphModel dx="2074" dy="1214" grid="1" gridSize="10" guides="1" tooltips="1" connect="1" arrows="1" fold="1" page="1" pageScale="1" pageWidth="1100" pageHeight="850" math="0" shadow="0">
      <root>
        <mxCell id="Hb1uP6ZlmAeSIielZWkP-0" />
        <mxCell id="Hb1uP6ZlmAeSIielZWkP-1" parent="Hb1uP6ZlmAeSIielZWkP-0" />
        <mxCell id="Hb1uP6ZlmAeSIielZWkP-22" value="given" style="edgeStyle=orthogonalEdgeStyle;shape=connector;rounded=1;orthogonalLoop=1;jettySize=auto;html=1;labelBackgroundColor=default;strokeColor=default;align=center;verticalAlign=middle;fontFamily=Helvetica;fontSize=11;fontColor=default;endArrow=classic;" parent="Hb1uP6ZlmAeSIielZWkP-1" source="Hb1uP6ZlmAeSIielZWkP-25" target="Hb1uP6ZlmAeSIielZWkP-26" edge="1">
          <mxGeometry x="0.6364" y="10" relative="1" as="geometry">
            <Array as="points">
              <mxPoint x="320" y="130" />
              <mxPoint x="320" y="80" />
            </Array>
            <mxPoint as="offset" />
          </mxGeometry>
        </mxCell>
        <mxCell id="Hb1uP6ZlmAeSIielZWkP-23" value="when" style="edgeStyle=orthogonalEdgeStyle;shape=connector;rounded=1;orthogonalLoop=1;jettySize=auto;html=1;labelBackgroundColor=default;strokeColor=default;align=center;verticalAlign=middle;fontFamily=Helvetica;fontSize=11;fontColor=default;endArrow=classic;" parent="Hb1uP6ZlmAeSIielZWkP-1" source="Hb1uP6ZlmAeSIielZWkP-25" target="Hb1uP6ZlmAeSIielZWkP-27" edge="1">
          <mxGeometry x="0.2" y="10" relative="1" as="geometry">
            <mxPoint as="offset" />
          </mxGeometry>
        </mxCell>
        <mxCell id="Hb1uP6ZlmAeSIielZWkP-24" value="then" style="edgeStyle=orthogonalEdgeStyle;shape=connector;rounded=1;orthogonalLoop=1;jettySize=auto;html=1;labelBackgroundColor=default;strokeColor=default;align=center;verticalAlign=middle;fontFamily=Helvetica;fontSize=11;fontColor=default;endArrow=classic;" parent="Hb1uP6ZlmAeSIielZWkP-1" source="Hb1uP6ZlmAeSIielZWkP-25" target="Hb1uP6ZlmAeSIielZWkP-28" edge="1">
          <mxGeometry x="0.6364" y="10" relative="1" as="geometry">
            <Array as="points">
              <mxPoint x="320" y="130" />
              <mxPoint x="320" y="180" />
            </Array>
            <mxPoint as="offset" />
          </mxGeometry>
        </mxCell>
        <mxCell id="Hb1uP6ZlmAeSIielZWkP-25" value="scenario-pickplace: Scenario" style="rounded=1;whiteSpace=wrap;html=1;" parent="Hb1uP6ZlmAeSIielZWkP-1" vertex="1">
          <mxGeometry x="160" y="110" width="120" height="40" as="geometry" />
        </mxCell>
        <mxCell id="Hb1uP6ZlmAeSIielZWkP-26" value="pickplace-given: GivenClause" style="rounded=1;whiteSpace=wrap;html=1;" parent="Hb1uP6ZlmAeSIielZWkP-1" vertex="1">
          <mxGeometry x="360" y="60" width="100" height="40" as="geometry" />
        </mxCell>
        <mxCell id="Hb1uP6ZlmAeSIielZWkP-27" value="pickplace-when: WhenClause" style="rounded=1;whiteSpace=wrap;html=1;" parent="Hb1uP6ZlmAeSIielZWkP-1" vertex="1">
          <mxGeometry x="360" y="110" width="100" height="40" as="geometry" />
        </mxCell>
        <mxCell id="Hb1uP6ZlmAeSIielZWkP-28" value="pickplace-then: ThenClause" style="rounded=1;whiteSpace=wrap;html=1;" parent="Hb1uP6ZlmAeSIielZWkP-1" vertex="1">
          <mxGeometry x="360" y="160" width="100" height="40" as="geometry" />
        </mxCell>
        <mxCell id="Hb1uP6ZlmAeSIielZWkP-29" value="of-scenario" style="edgeStyle=orthogonalEdgeStyle;shape=connector;rounded=1;orthogonalLoop=1;jettySize=auto;html=1;labelBackgroundColor=default;strokeColor=default;align=center;verticalAlign=middle;fontFamily=Helvetica;fontSize=11;fontColor=default;endArrow=classic;" parent="Hb1uP6ZlmAeSIielZWkP-1" source="Hb1uP6ZlmAeSIielZWkP-31" target="Hb1uP6ZlmAeSIielZWkP-25" edge="1">
          <mxGeometry relative="1" as="geometry" />
        </mxCell>
        <mxCell id="Hb1uP6ZlmAeSIielZWkP-30" value="has-clause" style="edgeStyle=orthogonalEdgeStyle;shape=connector;rounded=1;orthogonalLoop=1;jettySize=auto;html=1;labelBackgroundColor=default;strokeColor=default;align=center;verticalAlign=middle;fontFamily=Helvetica;fontSize=11;fontColor=default;endArrow=classic;" parent="Hb1uP6ZlmAeSIielZWkP-1" source="Hb1uP6ZlmAeSIielZWkP-31" target="Hb1uP6ZlmAeSIielZWkP-39" edge="1">
          <mxGeometry relative="1" as="geometry">
            <Array as="points">
              <mxPoint x="220" y="340" />
              <mxPoint x="700" y="340" />
              <mxPoint x="700" y="180" />
            </Array>
          </mxGeometry>
        </mxCell>
        <mxCell id="Hb1uP6ZlmAeSIielZWkP-31" value="pickplace-tmpl: ScenarioTemplate" style="rounded=1;whiteSpace=wrap;html=1;" parent="Hb1uP6ZlmAeSIielZWkP-1" vertex="1">
          <mxGeometry x="160" y="220" width="120" height="40" as="geometry" />
        </mxCell>
        <mxCell id="Hb1uP6ZlmAeSIielZWkP-35" value="ref-workspace" style="edgeStyle=orthogonalEdgeStyle;rounded=1;orthogonalLoop=1;jettySize=auto;html=1;" parent="Hb1uP6ZlmAeSIielZWkP-1" source="Hb1uP6ZlmAeSIielZWkP-39" target="Hb1uP6ZlmAeSIielZWkP-43" edge="1">
          <mxGeometry x="0.5" y="-10" relative="1" as="geometry">
            <Array as="points">
              <mxPoint x="520" y="180" />
              <mxPoint x="520" y="240" />
            </Array>
            <mxPoint as="offset" />
            <mxPoint x="460" y="240" as="targetPoint" />
          </mxGeometry>
        </mxCell>
        <mxCell id="Hb1uP6ZlmAeSIielZWkP-36" value="clause-of" style="edgeStyle=orthogonalEdgeStyle;rounded=1;orthogonalLoop=1;jettySize=auto;html=1;" parent="Hb1uP6ZlmAeSIielZWkP-1" source="Hb1uP6ZlmAeSIielZWkP-39" target="Hb1uP6ZlmAeSIielZWkP-28" edge="1">
          <mxGeometry y="-10" relative="1" as="geometry">
            <Array as="points" />
            <mxPoint as="offset" />
            <mxPoint x="490" y="180" as="targetPoint" />
          </mxGeometry>
        </mxCell>
        <mxCell id="Hb1uP6ZlmAeSIielZWkP-37" value="predicate" style="edgeStyle=orthogonalEdgeStyle;rounded=1;orthogonalLoop=1;jettySize=auto;html=1;labelBackgroundColor=default;" parent="Hb1uP6ZlmAeSIielZWkP-1" source="Hb1uP6ZlmAeSIielZWkP-39" target="Hb1uP6ZlmAeSIielZWkP-40" edge="1">
          <mxGeometry relative="1" as="geometry">
            <Array as="points">
              <mxPoint x="550" y="170" />
              <mxPoint x="550" y="170" />
            </Array>
          </mxGeometry>
        </mxCell>
        <mxCell id="Hb1uP6ZlmAeSIielZWkP-39" value="clause-obj-at-place-ws: FluentClause" style="rounded=1;whiteSpace=wrap;html=1;" parent="Hb1uP6ZlmAeSIielZWkP-1" vertex="1">
          <mxGeometry x="540" y="160" width="140" height="40" as="geometry" />
        </mxCell>
        <mxCell id="Hb1uP6ZlmAeSIielZWkP-40" value="pred-obj-located-at-ws: LocatedAtPredicate" style="rounded=1;whiteSpace=wrap;html=1;" parent="Hb1uP6ZlmAeSIielZWkP-1" vertex="1">
          <mxGeometry x="540" y="80" width="140" height="40" as="geometry" />
        </mxCell>
        <mxCell id="Hb1uP6ZlmAeSIielZWkP-41" value="after-place: TimeConstraint" style="rounded=1;whiteSpace=wrap;html=1;" parent="Hb1uP6ZlmAeSIielZWkP-1" vertex="1">
          <mxGeometry x="550" y="240" width="120" height="40" as="geometry" />
        </mxCell>
        <mxCell id="Hb1uP6ZlmAeSIielZWkP-42" value="ref-object" style="edgeStyle=orthogonalEdgeStyle;rounded=1;orthogonalLoop=1;jettySize=auto;html=1;" parent="Hb1uP6ZlmAeSIielZWkP-1" source="Hb1uP6ZlmAeSIielZWkP-39" target="Hb1uP6ZlmAeSIielZWkP-44" edge="1">
          <mxGeometry x="0.6364" y="-10" relative="1" as="geometry">
            <Array as="points">
              <mxPoint x="520" y="180" />
              <mxPoint x="520" y="300" />
            </Array>
            <mxPoint as="offset" />
            <mxPoint x="460" y="300" as="targetPoint" />
          </mxGeometry>
        </mxCell>
        <mxCell id="Hb1uP6ZlmAeSIielZWkP-43" value="place-ws: ScenarioVariable" style="rounded=1;whiteSpace=wrap;html=1;" parent="Hb1uP6ZlmAeSIielZWkP-1" vertex="1">
          <mxGeometry x="320" y="220" width="120" height="40" as="geometry" />
        </mxCell>
        <mxCell id="Hb1uP6ZlmAeSIielZWkP-44" value="target-obj: ScenarioVariable" style="rounded=1;whiteSpace=wrap;html=1;" parent="Hb1uP6ZlmAeSIielZWkP-1" vertex="1">
          <mxGeometry x="320" y="280" width="120" height="40" as="geometry" />
        </mxCell>
        <mxCell id="Hb1uP6ZlmAeSIielZWkP-45" value="when" style="edgeStyle=orthogonalEdgeStyle;rounded=1;orthogonalLoop=1;jettySize=auto;html=1;labelBackgroundColor=default;" parent="Hb1uP6ZlmAeSIielZWkP-1" source="Hb1uP6ZlmAeSIielZWkP-39" target="Hb1uP6ZlmAeSIielZWkP-41" edge="1">
          <mxGeometry x="-0.1429" relative="1" as="geometry">
            <Array as="points" />
            <mxPoint as="offset" />
            <mxPoint x="360" y="40" as="sourcePoint" />
            <mxPoint x="360" y="90" as="targetPoint" />
          </mxGeometry>
        </mxCell>
        <mxCell id="E76_HUsdvZQmVZZgEYIP-2" value="when" style="edgeStyle=orthogonalEdgeStyle;shape=connector;rounded=1;orthogonalLoop=1;jettySize=auto;html=1;labelBackgroundColor=default;strokeColor=default;align=center;verticalAlign=middle;fontFamily=Helvetica;fontSize=11;fontColor=default;endArrow=classic;" parent="Hb1uP6ZlmAeSIielZWkP-1" source="E76_HUsdvZQmVZZgEYIP-0" target="E76_HUsdvZQmVZZgEYIP-1" edge="1">
          <mxGeometry relative="1" as="geometry" />
        </mxCell>
        <mxCell id="E76_HUsdvZQmVZZgEYIP-3" value="predicate" style="edgeStyle=orthogonalEdgeStyle;shape=connector;rounded=1;orthogonalLoop=1;jettySize=auto;html=1;labelBackgroundColor=default;strokeColor=default;align=center;verticalAlign=middle;fontFamily=Helvetica;fontSize=11;fontColor=default;endArrow=classic;" parent="Hb1uP6ZlmAeSIielZWkP-1" source="E76_HUsdvZQmVZZgEYIP-0" target="Hb1uP6ZlmAeSIielZWkP-40" edge="1">
          <mxGeometry x="0.1765" relative="1" as="geometry">
            <Array as="points">
              <mxPoint x="790" y="100" />
            </Array>
            <mxPoint as="offset" />
          </mxGeometry>
        </mxCell>
        <mxCell id="E76_HUsdvZQmVZZgEYIP-4" value="clause-of" style="edgeStyle=orthogonalEdgeStyle;shape=connector;rounded=1;orthogonalLoop=1;jettySize=auto;html=1;labelBackgroundColor=default;strokeColor=default;align=center;verticalAlign=middle;fontFamily=Helvetica;fontSize=11;fontColor=default;endArrow=classic;" parent="Hb1uP6ZlmAeSIielZWkP-1" source="E76_HUsdvZQmVZZgEYIP-0" target="Hb1uP6ZlmAeSIielZWkP-26" edge="1">
          <mxGeometry relative="1" as="geometry">
            <Array as="points">
              <mxPoint x="790" y="40" />
              <mxPoint x="410" y="40" />
            </Array>
          </mxGeometry>
        </mxCell>
        <mxCell id="E76_HUsdvZQmVZZgEYIP-6" value="ref-workspace" style="edgeStyle=orthogonalEdgeStyle;shape=connector;rounded=1;orthogonalLoop=1;jettySize=auto;html=1;labelBackgroundColor=default;strokeColor=default;align=center;verticalAlign=middle;fontFamily=Helvetica;fontSize=11;fontColor=default;endArrow=classic;" parent="Hb1uP6ZlmAeSIielZWkP-1" source="E76_HUsdvZQmVZZgEYIP-0" target="E76_HUsdvZQmVZZgEYIP-5" edge="1">
          <mxGeometry relative="1" as="geometry">
            <Array as="points">
              <mxPoint x="880" y="180" />
              <mxPoint x="880" y="380" />
            </Array>
          </mxGeometry>
        </mxCell>
        <mxCell id="E76_HUsdvZQmVZZgEYIP-0" value="clause-obj-at-pick-ws: FluentClause" style="rounded=1;whiteSpace=wrap;html=1;" parent="Hb1uP6ZlmAeSIielZWkP-1" vertex="1">
          <mxGeometry x="720" y="160" width="140" height="40" as="geometry" />
        </mxCell>
        <mxCell id="E76_HUsdvZQmVZZgEYIP-1" value="before-pick: TimeConstraint" style="rounded=1;whiteSpace=wrap;html=1;" parent="Hb1uP6ZlmAeSIielZWkP-1" vertex="1">
          <mxGeometry x="730" y="240" width="120" height="40" as="geometry" />
        </mxCell>
        <mxCell id="E76_HUsdvZQmVZZgEYIP-5" value="pick-ws: ScenarioVariable" style="rounded=1;whiteSpace=wrap;html=1;" parent="Hb1uP6ZlmAeSIielZWkP-1" vertex="1">
          <mxGeometry x="320" y="360" width="120" height="40" as="geometry" />
        </mxCell>
      </root>
    </mxGraphModel>
  </diagram>
  <diagram id="_qIvA6GgIm6VxeKtwIQf" name="domain models">
    <mxGraphModel dx="1185" dy="694" grid="1" gridSize="10" guides="1" tooltips="1" connect="1" arrows="1" fold="1" page="1" pageScale="1" pageWidth="1100" pageHeight="850" math="0" shadow="0">
      <root>
        <mxCell id="0" />
        <mxCell id="1" parent="0" />
        <mxCell id="NWwC11tqa5HxXLljj8g7-1" value="bottle:&lt;br&gt;Object" style="rounded=1;whiteSpace=wrap;html=1;fillColor=#d5e8d4;strokeColor=#82b366;" parent="1" vertex="1">
          <mxGeometry x="459.96000000000004" y="50" width="80" height="40" as="geometry" />
        </mxCell>
        <mxCell id="WO_b1iSdlohBUTOhZSIr-1" value="of-object" style="edgeStyle=orthogonalEdgeStyle;shape=connector;rounded=1;orthogonalLoop=1;jettySize=auto;html=1;labelBackgroundColor=default;strokeColor=default;align=center;verticalAlign=middle;fontFamily=Helvetica;fontSize=11;fontColor=default;endArrow=classic;" parent="1" source="NWwC11tqa5HxXLljj8g7-2" target="NWwC11tqa5HxXLljj8g7-1" edge="1">
          <mxGeometry x="0.0003" y="10" relative="1" as="geometry">
            <mxPoint as="offset" />
          </mxGeometry>
        </mxCell>
        <mxCell id="WO_b1iSdlohBUTOhZSIr-4" style="edgeStyle=orthogonalEdgeStyle;shape=connector;rounded=1;orthogonalLoop=1;jettySize=auto;html=1;labelBackgroundColor=default;strokeColor=default;align=center;verticalAlign=middle;fontFamily=Helvetica;fontSize=11;fontColor=default;endArrow=classic;" parent="1" source="NWwC11tqa5HxXLljj8g7-2" target="WO_b1iSdlohBUTOhZSIr-2" edge="1">
          <mxGeometry relative="1" as="geometry">
            <Array as="points">
              <mxPoint x="119.97" y="70" />
              <mxPoint x="119.97" y="140" />
            </Array>
          </mxGeometry>
        </mxCell>
        <mxCell id="WO_b1iSdlohBUTOhZSIr-5" value="simplices" style="edgeStyle=orthogonalEdgeStyle;shape=connector;rounded=1;orthogonalLoop=1;jettySize=auto;html=1;labelBackgroundColor=default;strokeColor=default;align=center;verticalAlign=middle;fontFamily=Helvetica;fontSize=11;fontColor=default;endArrow=classic;" parent="1" source="NWwC11tqa5HxXLljj8g7-2" target="WO_b1iSdlohBUTOhZSIr-3" edge="1">
          <mxGeometry x="-0.6668" y="-10" relative="1" as="geometry">
            <Array as="points">
              <mxPoint x="119.97" y="70" />
              <mxPoint x="119.97" y="200" />
            </Array>
            <mxPoint as="offset" />
          </mxGeometry>
        </mxCell>
        <mxCell id="NWwC11tqa5HxXLljj8g7-2" value="bottle-body:&lt;br&gt;RigidObject, RigidBody SimplicialComplex" style="rounded=1;whiteSpace=wrap;html=1;fillColor=#d5e8d4;strokeColor=#82b366;gradientColor=#F5F5F5;" parent="1" vertex="1">
          <mxGeometry x="239.96000000000004" y="40" width="140" height="60" as="geometry" />
        </mxCell>
        <mxCell id="WO_b1iSdlohBUTOhZSIr-2" value="bottle-origin:&lt;br&gt;Point" style="rounded=1;whiteSpace=wrap;html=1;fillColor=#f5f5f5;fontColor=#333333;strokeColor=#666666;" parent="1" vertex="1">
          <mxGeometry x="139.96" y="120" width="100" height="40" as="geometry" />
        </mxCell>
        <mxCell id="WO_b1iSdlohBUTOhZSIr-3" value="bottle-frame:&lt;br&gt;Frame" style="rounded=1;whiteSpace=wrap;html=1;fillColor=#f5f5f5;fontColor=#333333;strokeColor=#666666;" parent="1" vertex="1">
          <mxGeometry x="139.96" y="180" width="100" height="40" as="geometry" />
        </mxCell>
        <mxCell id="WO_b1iSdlohBUTOhZSIr-6" value="world-frame-origin:&lt;br&gt;Point" style="rounded=1;whiteSpace=wrap;html=1;fillColor=#f5f5f5;fontColor=#333333;strokeColor=#666666;" parent="1" vertex="1">
          <mxGeometry x="439.96000000000004" y="120" width="120" height="40" as="geometry" />
        </mxCell>
        <mxCell id="WO_b1iSdlohBUTOhZSIr-7" value="world-frame:&lt;br&gt;Frame" style="rounded=1;whiteSpace=wrap;html=1;fillColor=#f5f5f5;fontColor=#333333;strokeColor=#666666;" parent="1" vertex="1">
          <mxGeometry x="449.96000000000004" y="180" width="100" height="40" as="geometry" />
        </mxCell>
        <mxCell id="WO_b1iSdlohBUTOhZSIr-9" value="of" style="edgeStyle=orthogonalEdgeStyle;shape=connector;rounded=1;orthogonalLoop=1;jettySize=auto;html=1;labelBackgroundColor=default;strokeColor=default;align=center;verticalAlign=middle;fontFamily=Helvetica;fontSize=11;fontColor=default;endArrow=classic;" parent="1" source="WO_b1iSdlohBUTOhZSIr-8" target="WO_b1iSdlohBUTOhZSIr-2" edge="1">
          <mxGeometry y="-10" relative="1" as="geometry">
            <mxPoint as="offset" />
          </mxGeometry>
        </mxCell>
        <mxCell id="WO_b1iSdlohBUTOhZSIr-10" value="w.r.t." style="edgeStyle=orthogonalEdgeStyle;shape=connector;rounded=1;orthogonalLoop=1;jettySize=auto;html=1;labelBackgroundColor=default;strokeColor=default;align=center;verticalAlign=middle;fontFamily=Helvetica;fontSize=11;fontColor=default;endArrow=classic;" parent="1" target="WO_b1iSdlohBUTOhZSIr-6" edge="1" source="WO_b1iSdlohBUTOhZSIr-8">
          <mxGeometry y="10" relative="1" as="geometry">
            <mxPoint x="429.96000000000004" y="140" as="sourcePoint" />
            <mxPoint x="239.96" y="360" as="targetPoint" />
            <mxPoint as="offset" />
          </mxGeometry>
        </mxCell>
        <mxCell id="WO_b1iSdlohBUTOhZSIr-8" value="bottle-world-position:&lt;br&gt;Position" style="rounded=1;whiteSpace=wrap;html=1;fillColor=#f5f5f5;fontColor=#333333;strokeColor=#666666;" parent="1" vertex="1">
          <mxGeometry x="279.96000000000004" y="120" width="120" height="40" as="geometry" />
        </mxCell>
        <mxCell id="WO_b1iSdlohBUTOhZSIr-12" value="of" style="edgeStyle=orthogonalEdgeStyle;shape=connector;rounded=1;orthogonalLoop=1;jettySize=auto;html=1;labelBackgroundColor=default;strokeColor=default;align=center;verticalAlign=middle;fontFamily=Helvetica;fontSize=11;fontColor=default;endArrow=classic;" parent="1" source="WO_b1iSdlohBUTOhZSIr-11" target="WO_b1iSdlohBUTOhZSIr-3" edge="1">
          <mxGeometry y="-10" relative="1" as="geometry">
            <mxPoint as="offset" />
          </mxGeometry>
        </mxCell>
        <mxCell id="WO_b1iSdlohBUTOhZSIr-13" value="w.r.t." style="edgeStyle=orthogonalEdgeStyle;shape=connector;rounded=1;orthogonalLoop=1;jettySize=auto;html=1;labelBackgroundColor=default;strokeColor=default;align=center;verticalAlign=middle;fontFamily=Helvetica;fontSize=11;fontColor=default;endArrow=classic;" parent="1" source="WO_b1iSdlohBUTOhZSIr-11" target="WO_b1iSdlohBUTOhZSIr-7" edge="1">
          <mxGeometry x="-0.1998" y="10" relative="1" as="geometry">
            <mxPoint as="offset" />
          </mxGeometry>
        </mxCell>
        <mxCell id="WO_b1iSdlohBUTOhZSIr-11" value="bottle-world-orn:&lt;br&gt;Orientation" style="rounded=1;whiteSpace=wrap;html=1;fillColor=#f5f5f5;fontColor=#333333;strokeColor=#666666;" parent="1" vertex="1">
          <mxGeometry x="279.97" y="180" width="120" height="40" as="geometry" />
        </mxCell>
        <mxCell id="WO_b1iSdlohBUTOhZSIr-15" value="" style="edgeStyle=orthogonalEdgeStyle;shape=connector;rounded=1;orthogonalLoop=1;jettySize=auto;html=1;labelBackgroundColor=default;strokeColor=default;align=center;verticalAlign=middle;fontFamily=Helvetica;fontSize=11;fontColor=default;endArrow=classic;" parent="1" source="WO_b1iSdlohBUTOhZSIr-14" target="WO_b1iSdlohBUTOhZSIr-3" edge="1">
          <mxGeometry relative="1" as="geometry">
            <Array as="points">
              <mxPoint x="259.96000000000004" y="260" />
              <mxPoint x="259.96000000000004" y="200" />
            </Array>
          </mxGeometry>
        </mxCell>
        <mxCell id="WO_b1iSdlohBUTOhZSIr-16" value="w.r.t." style="edgeStyle=orthogonalEdgeStyle;shape=connector;rounded=1;orthogonalLoop=1;jettySize=auto;html=1;labelBackgroundColor=default;strokeColor=default;align=center;verticalAlign=middle;fontFamily=Helvetica;fontSize=11;fontColor=default;endArrow=classic;" parent="1" source="WO_b1iSdlohBUTOhZSIr-14" target="WO_b1iSdlohBUTOhZSIr-7" edge="1">
          <mxGeometry x="-0.7143" y="10" relative="1" as="geometry">
            <mxPoint as="offset" />
          </mxGeometry>
        </mxCell>
        <mxCell id="WO_b1iSdlohBUTOhZSIr-14" value="bottle-world-pose:&lt;br&gt;Pose" style="rounded=1;whiteSpace=wrap;html=1;fillColor=#f5f5f5;fontColor=#333333;strokeColor=#666666;" parent="1" vertex="1">
          <mxGeometry x="279.97" y="240" width="120" height="40" as="geometry" />
        </mxCell>
        <mxCell id="6j2fwe_ddpKTnfQm-uB--1" value="bottle-world-orn:&lt;br&gt;Orientation" style="rounded=1;whiteSpace=wrap;html=1;" parent="1" vertex="1">
          <mxGeometry x="960" y="540" width="120" height="40" as="geometry" />
        </mxCell>
        <mxCell id="6j2fwe_ddpKTnfQm-uB--4" value="bottle-world-position:&lt;br&gt;Position" style="rounded=1;whiteSpace=wrap;html=1;" parent="1" vertex="1">
          <mxGeometry x="960" y="680" width="120" height="40" as="geometry" />
        </mxCell>
        <mxCell id="6j2fwe_ddpKTnfQm-uB--5" value="uniform-position-xyz:&lt;br&gt;Distribution, Continuous, Uniform" style="rounded=1;whiteSpace=wrap;html=1;" parent="1" vertex="1">
          <mxGeometry x="960" y="740" width="140" height="60" as="geometry" />
        </mxCell>
        <mxCell id="6j2fwe_ddpKTnfQm-uB--6" value="uniform-rotation:&lt;br&gt;Distribution, Continuous, UniformRotation" style="rounded=1;whiteSpace=wrap;html=1;" parent="1" vertex="1">
          <mxGeometry x="960" y="600" width="140" height="60" as="geometry" />
        </mxCell>
        <mxCell id="6j2fwe_ddpKTnfQm-uB--8" value="of-orientation" style="edgeStyle=orthogonalEdgeStyle;shape=connector;rounded=1;orthogonalLoop=1;jettySize=auto;html=1;labelBackgroundColor=default;strokeColor=default;align=center;verticalAlign=middle;fontFamily=Helvetica;fontSize=11;fontColor=default;endArrow=classic;" parent="1" source="6j2fwe_ddpKTnfQm-uB--7" target="6j2fwe_ddpKTnfQm-uB--1" edge="1">
          <mxGeometry relative="1" as="geometry" />
        </mxCell>
        <mxCell id="6j2fwe_ddpKTnfQm-uB--9" value="from-distribution" style="edgeStyle=orthogonalEdgeStyle;shape=connector;rounded=1;orthogonalLoop=1;jettySize=auto;html=1;labelBackgroundColor=default;strokeColor=default;align=center;verticalAlign=middle;fontFamily=Helvetica;fontSize=11;fontColor=default;endArrow=classic;" parent="1" source="6j2fwe_ddpKTnfQm-uB--7" target="6j2fwe_ddpKTnfQm-uB--6" edge="1">
          <mxGeometry relative="1" as="geometry" />
        </mxCell>
        <mxCell id="6j2fwe_ddpKTnfQm-uB--7" value="sampled-bottle-orn:&lt;br&gt;SampledQuantity, OrientationCoord,..." style="rounded=1;whiteSpace=wrap;html=1;" parent="1" vertex="1">
          <mxGeometry x="720" y="560" width="140" height="60" as="geometry" />
        </mxCell>
        <mxCell id="6j2fwe_ddpKTnfQm-uB--11" value="of-position" style="edgeStyle=orthogonalEdgeStyle;shape=connector;rounded=1;orthogonalLoop=1;jettySize=auto;html=1;labelBackgroundColor=default;strokeColor=default;align=center;verticalAlign=middle;fontFamily=Helvetica;fontSize=11;fontColor=default;endArrow=classic;" parent="1" source="6j2fwe_ddpKTnfQm-uB--10" target="6j2fwe_ddpKTnfQm-uB--4" edge="1">
          <mxGeometry relative="1" as="geometry" />
        </mxCell>
        <mxCell id="6j2fwe_ddpKTnfQm-uB--12" value="from-distribution" style="edgeStyle=orthogonalEdgeStyle;shape=connector;rounded=1;orthogonalLoop=1;jettySize=auto;html=1;labelBackgroundColor=default;strokeColor=default;align=center;verticalAlign=middle;fontFamily=Helvetica;fontSize=11;fontColor=default;endArrow=classic;" parent="1" source="6j2fwe_ddpKTnfQm-uB--10" target="6j2fwe_ddpKTnfQm-uB--5" edge="1">
          <mxGeometry relative="1" as="geometry" />
        </mxCell>
        <mxCell id="6j2fwe_ddpKTnfQm-uB--10" value="sampled-bottle-position:&lt;br&gt;SampledQuantity, PositionCoord,..." style="rounded=1;whiteSpace=wrap;html=1;" parent="1" vertex="1">
          <mxGeometry x="720" y="700" width="140" height="60" as="geometry" />
        </mxCell>
        <mxCell id="6j2fwe_ddpKTnfQm-uB--13" value="bottle-world-position:&lt;br&gt;Position" style="rounded=1;whiteSpace=wrap;html=1;" parent="1" vertex="1">
          <mxGeometry x="260" y="730" width="120" height="40" as="geometry" />
        </mxCell>
        <mxCell id="6j2fwe_ddpKTnfQm-uB--15" value="estimates" style="edgeStyle=orthogonalEdgeStyle;shape=connector;rounded=1;orthogonalLoop=1;jettySize=auto;html=1;labelBackgroundColor=default;strokeColor=default;align=center;verticalAlign=middle;fontFamily=Helvetica;fontSize=11;fontColor=default;endArrow=classic;" parent="1" source="6j2fwe_ddpKTnfQm-uB--14" target="6j2fwe_ddpKTnfQm-uB--13" edge="1">
          <mxGeometry relative="1" as="geometry" />
        </mxCell>
        <mxCell id="6j2fwe_ddpKTnfQm-uB--14" value="bottle-position-est:&lt;br&gt;Estimation" style="rounded=1;whiteSpace=wrap;html=1;" parent="1" vertex="1">
          <mxGeometry x="60" y="770" width="120" height="40" as="geometry" />
        </mxCell>
        <mxCell id="6j2fwe_ddpKTnfQm-uB--17" value="quantity" style="edgeStyle=orthogonalEdgeStyle;shape=connector;rounded=1;orthogonalLoop=1;jettySize=auto;html=1;labelBackgroundColor=default;strokeColor=default;align=center;verticalAlign=middle;fontFamily=Helvetica;fontSize=11;fontColor=default;endArrow=classic;" parent="1" source="6j2fwe_ddpKTnfQm-uB--16" target="6j2fwe_ddpKTnfQm-uB--13" edge="1">
          <mxGeometry relative="1" as="geometry" />
        </mxCell>
        <mxCell id="6j2fwe_ddpKTnfQm-uB--16" value="bottle-world-position:&lt;br&gt;ConstrainedQuantityPredicate" style="rounded=1;whiteSpace=wrap;html=1;" parent="1" vertex="1">
          <mxGeometry x="479.96000000000004" y="730" width="120" height="40" as="geometry" />
        </mxCell>
        <mxCell id="lRp6P2flNYcnq9-F1YLB-2" value="bottle:&lt;br&gt;Object" style="rounded=1;whiteSpace=wrap;html=1;fillColor=#d5e8d4;strokeColor=#82b366;" vertex="1" parent="1">
          <mxGeometry x="539.96" y="390" width="80" height="40" as="geometry" />
        </mxCell>
        <mxCell id="lRp6P2flNYcnq9-F1YLB-3" value="of-object" style="edgeStyle=orthogonalEdgeStyle;shape=connector;rounded=1;orthogonalLoop=1;jettySize=auto;html=1;labelBackgroundColor=default;strokeColor=default;align=center;verticalAlign=middle;fontFamily=Helvetica;fontSize=11;fontColor=default;endArrow=classic;" edge="1" parent="1" source="lRp6P2flNYcnq9-F1YLB-6" target="lRp6P2flNYcnq9-F1YLB-2">
          <mxGeometry x="0.0003" y="10" relative="1" as="geometry">
            <mxPoint as="offset" />
          </mxGeometry>
        </mxCell>
        <mxCell id="lRp6P2flNYcnq9-F1YLB-4" value="has-simplex" style="edgeStyle=orthogonalEdgeStyle;shape=connector;rounded=1;orthogonalLoop=1;jettySize=auto;html=1;labelBackgroundColor=default;strokeColor=default;align=center;verticalAlign=middle;fontFamily=Helvetica;fontSize=11;fontColor=default;endArrow=classic;" edge="1" parent="1" source="lRp6P2flNYcnq9-F1YLB-21" target="lRp6P2flNYcnq9-F1YLB-7">
          <mxGeometry relative="1" as="geometry">
            <Array as="points">
              <mxPoint x="140" y="410" />
              <mxPoint x="140" y="480" />
            </Array>
            <mxPoint as="offset" />
          </mxGeometry>
        </mxCell>
        <mxCell id="lRp6P2flNYcnq9-F1YLB-22" value="body" style="edgeStyle=orthogonalEdgeStyle;shape=connector;rounded=1;orthogonalLoop=1;jettySize=auto;html=1;labelBackgroundColor=default;strokeColor=default;align=center;verticalAlign=middle;fontFamily=Helvetica;fontSize=11;fontColor=default;endArrow=classic;" edge="1" parent="1" source="lRp6P2flNYcnq9-F1YLB-6" target="lRp6P2flNYcnq9-F1YLB-21">
          <mxGeometry y="-15" relative="1" as="geometry">
            <mxPoint as="offset" />
          </mxGeometry>
        </mxCell>
        <mxCell id="lRp6P2flNYcnq9-F1YLB-6" value="bottle-has-body:&lt;br&gt;ObjectHasBody" style="rounded=1;whiteSpace=wrap;html=1;fillColor=#d5e8d4;strokeColor=#82b366;gradientColor=#F5F5F5;" vertex="1" parent="1">
          <mxGeometry x="379.96000000000004" y="390" width="100" height="40" as="geometry" />
        </mxCell>
        <mxCell id="lRp6P2flNYcnq9-F1YLB-7" value="bottle-origin:&lt;br&gt;Point" style="rounded=1;whiteSpace=wrap;html=1;fillColor=#f5f5f5;fontColor=#333333;strokeColor=#666666;" vertex="1" parent="1">
          <mxGeometry x="180" y="460" width="100" height="40" as="geometry" />
        </mxCell>
        <mxCell id="lRp6P2flNYcnq9-F1YLB-9" value="end-effector-origin:&lt;br&gt;Point" style="rounded=1;whiteSpace=wrap;html=1;fillColor=#f5f5f5;fontColor=#333333;strokeColor=#666666;" vertex="1" parent="1">
          <mxGeometry x="480.00000000000006" y="460" width="120" height="40" as="geometry" />
        </mxCell>
        <mxCell id="lRp6P2flNYcnq9-F1YLB-11" value="of" style="edgeStyle=orthogonalEdgeStyle;shape=connector;rounded=1;orthogonalLoop=1;jettySize=auto;html=1;labelBackgroundColor=default;strokeColor=default;align=center;verticalAlign=middle;fontFamily=Helvetica;fontSize=11;fontColor=default;endArrow=classic;" edge="1" parent="1" source="lRp6P2flNYcnq9-F1YLB-13" target="lRp6P2flNYcnq9-F1YLB-7">
          <mxGeometry y="-10" relative="1" as="geometry">
            <mxPoint as="offset" />
          </mxGeometry>
        </mxCell>
        <mxCell id="lRp6P2flNYcnq9-F1YLB-12" value="w.r.t." style="edgeStyle=orthogonalEdgeStyle;shape=connector;rounded=1;orthogonalLoop=1;jettySize=auto;html=1;labelBackgroundColor=default;strokeColor=default;align=center;verticalAlign=middle;fontFamily=Helvetica;fontSize=11;fontColor=default;endArrow=classic;" edge="1" parent="1" source="lRp6P2flNYcnq9-F1YLB-13" target="lRp6P2flNYcnq9-F1YLB-9">
          <mxGeometry y="10" relative="1" as="geometry">
            <mxPoint x="479.98" y="430" as="sourcePoint" />
            <mxPoint x="289.98" y="650" as="targetPoint" />
            <mxPoint as="offset" />
          </mxGeometry>
        </mxCell>
        <mxCell id="lRp6P2flNYcnq9-F1YLB-13" value="bottle-ee-position:&lt;br&gt;Position" style="rounded=1;whiteSpace=wrap;html=1;fillColor=#f5f5f5;fontColor=#333333;strokeColor=#666666;" vertex="1" parent="1">
          <mxGeometry x="319.96" y="460" width="120" height="40" as="geometry" />
        </mxCell>
        <mxCell id="lRp6P2flNYcnq9-F1YLB-20" value="panda:&lt;br&gt;Agent" style="rounded=1;whiteSpace=wrap;html=1;fillColor=#dae8fc;strokeColor=#6c8ebf;" vertex="1" parent="1">
          <mxGeometry x="100" y="530" width="80" height="40" as="geometry" />
        </mxCell>
        <mxCell id="lRp6P2flNYcnq9-F1YLB-21" value="bottle-body:&lt;br&gt;RigidBody, SimplicialComplex" style="rounded=1;whiteSpace=wrap;html=1;fillColor=#f5f5f5;fontColor=#333333;strokeColor=#666666;" vertex="1" parent="1">
          <mxGeometry x="180" y="380" width="140" height="60" as="geometry" />
        </mxCell>
        <mxCell id="lRp6P2flNYcnq9-F1YLB-25" value="has-simplex" style="edgeStyle=orthogonalEdgeStyle;shape=connector;rounded=1;orthogonalLoop=1;jettySize=auto;html=1;labelBackgroundColor=default;strokeColor=default;align=center;verticalAlign=middle;fontFamily=Helvetica;fontSize=11;fontColor=default;endArrow=classic;" edge="1" parent="1" source="lRp6P2flNYcnq9-F1YLB-23" target="lRp6P2flNYcnq9-F1YLB-9">
          <mxGeometry x="0.0908" relative="1" as="geometry">
            <Array as="points">
              <mxPoint x="640" y="550" />
              <mxPoint x="640" y="480" />
            </Array>
            <mxPoint as="offset" />
          </mxGeometry>
        </mxCell>
        <mxCell id="lRp6P2flNYcnq9-F1YLB-23" value="ee-body:&lt;br&gt;RigidBody, SimplicialComplex" style="rounded=1;whiteSpace=wrap;html=1;fillColor=#f5f5f5;fontColor=#333333;strokeColor=#666666;" vertex="1" parent="1">
          <mxGeometry x="499.96000000000004" y="520" width="120" height="60" as="geometry" />
        </mxCell>
        <mxCell id="lRp6P2flNYcnq9-F1YLB-29" value="kc" style="edgeStyle=orthogonalEdgeStyle;shape=connector;rounded=1;orthogonalLoop=1;jettySize=auto;html=1;labelBackgroundColor=default;strokeColor=default;align=center;verticalAlign=middle;fontFamily=Helvetica;fontSize=11;fontColor=default;endArrow=classic;" edge="1" parent="1" source="lRp6P2flNYcnq9-F1YLB-24" target="lRp6P2flNYcnq9-F1YLB-27">
          <mxGeometry x="0.0007" y="10" relative="1" as="geometry">
            <mxPoint as="offset" />
          </mxGeometry>
        </mxCell>
        <mxCell id="lRp6P2flNYcnq9-F1YLB-30" value="of-agent" style="edgeStyle=orthogonalEdgeStyle;shape=connector;rounded=1;orthogonalLoop=1;jettySize=auto;html=1;labelBackgroundColor=default;strokeColor=default;align=center;verticalAlign=middle;fontFamily=Helvetica;fontSize=11;fontColor=default;endArrow=classic;" edge="1" parent="1" source="lRp6P2flNYcnq9-F1YLB-24" target="lRp6P2flNYcnq9-F1YLB-20">
          <mxGeometry x="-0.0007" y="-10" relative="1" as="geometry">
            <mxPoint as="offset" />
          </mxGeometry>
        </mxCell>
        <mxCell id="lRp6P2flNYcnq9-F1YLB-24" value="panda-has-kc:&lt;br&gt;AgentHasKC" style="rounded=1;whiteSpace=wrap;html=1;fillColor=#dae8fc;strokeColor=#6c8ebf;gradientColor=#F5F5F5;" vertex="1" parent="1">
          <mxGeometry x="239.96" y="530" width="100" height="40" as="geometry" />
        </mxCell>
        <mxCell id="lRp6P2flNYcnq9-F1YLB-28" style="edgeStyle=orthogonalEdgeStyle;shape=connector;rounded=1;orthogonalLoop=1;jettySize=auto;html=1;labelBackgroundColor=default;strokeColor=default;align=center;verticalAlign=middle;fontFamily=Helvetica;fontSize=11;fontColor=default;endArrow=classic;" edge="1" parent="1" source="lRp6P2flNYcnq9-F1YLB-27" target="lRp6P2flNYcnq9-F1YLB-23">
          <mxGeometry relative="1" as="geometry" />
        </mxCell>
        <mxCell id="lRp6P2flNYcnq9-F1YLB-27" value="panda-chain:&lt;br&gt;KinematicChain" style="rounded=1;whiteSpace=wrap;html=1;fillColor=#f5f5f5;fontColor=#333333;strokeColor=#666666;" vertex="1" parent="1">
          <mxGeometry x="380" y="530" width="100" height="40" as="geometry" />
        </mxCell>
      </root>
    </mxGraphModel>
  </diagram>
  <diagram id="-0lKBOBP2GUerCE-fOnU" name="pick-variants">
    <mxGraphModel dx="1185" dy="694" grid="1" gridSize="10" guides="1" tooltips="1" connect="1" arrows="1" fold="1" page="1" pageScale="1" pageWidth="1169" pageHeight="827" math="0" shadow="0">
      <root>
        <mxCell id="0" />
        <mxCell id="1" parent="0" />
        <mxCell id="XKzM1crf-QcHamqGqUb6-43" value="scenario-pick: Scenario" style="rounded=1;whiteSpace=wrap;html=1;fillColor=#f8cecc;strokeColor=#b85450;" parent="1" vertex="1">
          <mxGeometry x="720" y="160" width="100" height="40" as="geometry" />
        </mxCell>
        <mxCell id="XKzM1crf-QcHamqGqUb6-44" value="of-scenario" style="edgeStyle=orthogonalEdgeStyle;shape=connector;rounded=1;orthogonalLoop=1;jettySize=auto;html=1;labelBackgroundColor=default;strokeColor=default;align=center;verticalAlign=middle;fontFamily=Helvetica;fontSize=11;fontColor=default;endArrow=classic;" parent="1" source="XKzM1crf-QcHamqGqUb6-45" target="XKzM1crf-QcHamqGqUb6-43" edge="1">
          <mxGeometry relative="1" as="geometry">
            <mxPoint as="offset" />
          </mxGeometry>
        </mxCell>
        <mxCell id="PuWQBQdgF5Zxe-uR59xl-3" value="has-clause" style="edgeStyle=orthogonalEdgeStyle;shape=connector;rounded=1;jumpStyle=arc;orthogonalLoop=1;jettySize=auto;html=1;labelBackgroundColor=default;strokeColor=default;align=center;verticalAlign=middle;fontFamily=Helvetica;fontSize=11;fontColor=default;endArrow=classic;" parent="1" source="XKzM1crf-QcHamqGqUb6-45" target="PuWQBQdgF5Zxe-uR59xl-1" edge="1">
          <mxGeometry x="0.037" relative="1" as="geometry">
            <Array as="points">
              <mxPoint x="840" y="260" />
              <mxPoint x="840" y="480" />
            </Array>
            <mxPoint as="offset" />
          </mxGeometry>
        </mxCell>
        <mxCell id="XKzM1crf-QcHamqGqUb6-45" value="pick-tmpl: ScenarioTemplate" style="rounded=1;whiteSpace=wrap;html=1;fillColor=#f8cecc;strokeColor=#b85450;" parent="1" vertex="1">
          <mxGeometry x="720" y="240" width="100" height="40" as="geometry" />
        </mxCell>
        <mxCell id="XKzM1crf-QcHamqGqUb6-46" value="target-obj: ScenarioVariable" style="rounded=1;whiteSpace=wrap;html=1;fillColor=#f8cecc;strokeColor=#b85450;" parent="1" vertex="1">
          <mxGeometry x="520" y="460" width="100" height="40" as="geometry" />
        </mxCell>
        <mxCell id="XKzM1crf-QcHamqGqUb6-47" value="has-criteria" style="edgeStyle=orthogonalEdgeStyle;rounded=1;orthogonalLoop=1;jettySize=auto;html=1;labelBackgroundColor=default;" parent="1" source="XKzM1crf-QcHamqGqUb6-48" target="XKzM1crf-QcHamqGqUb6-56" edge="1">
          <mxGeometry relative="1" as="geometry">
            <mxPoint as="offset" />
          </mxGeometry>
        </mxCell>
        <mxCell id="XKzM1crf-QcHamqGqUb6-48" value="us-single-arm: UserStory" style="rounded=1;whiteSpace=wrap;html=1;fillColor=#f8cecc;strokeColor=#b85450;" parent="1" vertex="1">
          <mxGeometry x="560" y="160" width="100" height="40" as="geometry" />
        </mxCell>
        <mxCell id="XKzM1crf-QcHamqGqUb6-49" value="can-be" style="edgeStyle=orthogonalEdgeStyle;rounded=1;orthogonalLoop=1;jettySize=auto;html=1;labelBackgroundColor=default;" parent="1" source="XKzM1crf-QcHamqGqUb6-51" target="XKzM1crf-QcHamqGqUb6-52" edge="1">
          <mxGeometry relative="1" as="geometry" />
        </mxCell>
        <mxCell id="XKzM1crf-QcHamqGqUb6-50" value="of-variable" style="edgeStyle=orthogonalEdgeStyle;shape=connector;rounded=1;orthogonalLoop=1;jettySize=auto;html=1;labelBackgroundColor=default;strokeColor=default;align=center;verticalAlign=middle;fontFamily=Helvetica;fontSize=11;fontColor=default;endArrow=classic;jumpStyle=arc;" parent="1" source="XKzM1crf-QcHamqGqUb6-51" target="XKzM1crf-QcHamqGqUb6-46" edge="1">
          <mxGeometry x="0.6296" y="10" relative="1" as="geometry">
            <mxPoint as="offset" />
            <Array as="points">
              <mxPoint x="380" y="340" />
              <mxPoint x="380" y="480" />
            </Array>
            <mxPoint x="480" y="480" as="targetPoint" />
          </mxGeometry>
        </mxCell>
        <mxCell id="XKzM1crf-QcHamqGqUb6-51" value="obj-variation: TaskVariation" style="rounded=1;whiteSpace=wrap;html=1;fillColor=#ffe6cc;strokeColor=#d79b00;gradientColor=#F8CECC;" parent="1" vertex="1">
          <mxGeometry x="400" y="320" width="100" height="40" as="geometry" />
        </mxCell>
        <mxCell id="XKzM1crf-QcHamqGqUb6-52" value="bottle:&lt;br&gt;Object" style="rounded=1;whiteSpace=wrap;html=1;fillColor=#d5e8d4;strokeColor=#82b366;" parent="1" vertex="1">
          <mxGeometry x="410" y="400" width="80" height="40" as="geometry" />
        </mxCell>
        <mxCell id="XKzM1crf-QcHamqGqUb6-53" value="has-variation" style="edgeStyle=orthogonalEdgeStyle;rounded=1;orthogonalLoop=1;jettySize=auto;html=1;labelBackgroundColor=default;" parent="1" source="XKzM1crf-QcHamqGqUb6-56" target="XKzM1crf-QcHamqGqUb6-51" edge="1">
          <mxGeometry x="0.1422" relative="1" as="geometry">
            <mxPoint as="offset" />
            <Array as="points">
              <mxPoint x="520" y="260" />
              <mxPoint x="520" y="340" />
            </Array>
          </mxGeometry>
        </mxCell>
        <mxCell id="XKzM1crf-QcHamqGqUb6-54" value="of-template" style="edgeStyle=orthogonalEdgeStyle;rounded=0;orthogonalLoop=1;jettySize=auto;html=1;" parent="1" source="XKzM1crf-QcHamqGqUb6-56" target="XKzM1crf-QcHamqGqUb6-45" edge="1">
          <mxGeometry y="10" relative="1" as="geometry">
            <mxPoint as="offset" />
          </mxGeometry>
        </mxCell>
        <mxCell id="XKzM1crf-QcHamqGqUb6-55" value="has-in-scene" style="edgeStyle=orthogonalEdgeStyle;shape=connector;rounded=1;orthogonalLoop=1;jettySize=auto;html=1;labelBackgroundColor=default;strokeColor=default;align=center;verticalAlign=middle;fontFamily=Helvetica;fontSize=11;fontColor=default;endArrow=classic;" parent="1" source="XKzM1crf-QcHamqGqUb6-56" target="XKzM1crf-QcHamqGqUb6-60" edge="1">
          <mxGeometry relative="1" as="geometry" />
        </mxCell>
        <mxCell id="3QiBNkRlDue3tiZgigdy-3" value="has-clause" style="edgeStyle=orthogonalEdgeStyle;shape=connector;rounded=1;orthogonalLoop=1;jettySize=auto;html=1;labelBackgroundColor=default;strokeColor=default;align=center;verticalAlign=middle;fontFamily=Helvetica;fontSize=11;fontColor=default;endArrow=classic;" edge="1" parent="1" source="XKzM1crf-QcHamqGqUb6-56" target="3QiBNkRlDue3tiZgigdy-1">
          <mxGeometry x="-0.1427" y="-10" relative="1" as="geometry">
            <Array as="points">
              <mxPoint x="460" y="260" />
            </Array>
            <mxPoint as="offset" />
          </mxGeometry>
        </mxCell>
        <mxCell id="XKzM1crf-QcHamqGqUb6-56" value="pickplace-lab: ScenarioVariant" style="rounded=1;whiteSpace=wrap;html=1;fillColor=#f8cecc;strokeColor=#b85450;" parent="1" vertex="1">
          <mxGeometry x="560" y="240" width="100" height="40" as="geometry" />
        </mxCell>
        <mxCell id="XKzM1crf-QcHamqGqUb6-57" value="has-obj" style="edgeStyle=orthogonalEdgeStyle;shape=connector;rounded=1;orthogonalLoop=1;jettySize=auto;html=1;labelBackgroundColor=default;strokeColor=default;align=center;verticalAlign=middle;fontFamily=Helvetica;fontSize=11;fontColor=default;endArrow=classic;" parent="1" source="XKzM1crf-QcHamqGqUb6-60" target="XKzM1crf-QcHamqGqUb6-52" edge="1">
          <mxGeometry x="-0.0769" relative="1" as="geometry">
            <Array as="points">
              <mxPoint x="540" y="340" />
              <mxPoint x="540" y="420" />
            </Array>
            <mxPoint as="offset" />
          </mxGeometry>
        </mxCell>
        <mxCell id="XKzM1crf-QcHamqGqUb6-58" value="of-scene" style="edgeStyle=orthogonalEdgeStyle;shape=connector;rounded=1;orthogonalLoop=1;jettySize=auto;html=1;labelBackgroundColor=default;strokeColor=default;align=center;verticalAlign=middle;fontFamily=Helvetica;fontSize=11;fontColor=default;endArrow=classic;" parent="1" source="XKzM1crf-QcHamqGqUb6-60" target="XKzM1crf-QcHamqGqUb6-62" edge="1">
          <mxGeometry x="-0.1429" y="10" relative="1" as="geometry">
            <mxPoint as="offset" />
          </mxGeometry>
        </mxCell>
        <mxCell id="XKzM1crf-QcHamqGqUb6-59" value="has-obj" style="edgeStyle=orthogonalEdgeStyle;shape=connector;rounded=1;orthogonalLoop=1;jettySize=auto;html=1;labelBackgroundColor=default;strokeColor=default;align=center;verticalAlign=middle;fontFamily=Helvetica;fontSize=11;fontColor=default;endArrow=classic;" parent="1" source="XKzM1crf-QcHamqGqUb6-60" target="XKzM1crf-QcHamqGqUb6-63" edge="1">
          <mxGeometry relative="1" as="geometry">
            <mxPoint as="offset" />
          </mxGeometry>
        </mxCell>
        <mxCell id="XKzM1crf-QcHamqGqUb6-60" value="scn-has-obj-lab: SceneHasObjects" style="rounded=1;whiteSpace=wrap;html=1;fillColor=#d5e8d4;strokeColor=#82b366;gradientColor=#F8CECC;" parent="1" vertex="1">
          <mxGeometry x="560" y="320" width="100" height="40" as="geometry" />
        </mxCell>
        <mxCell id="XKzM1crf-QcHamqGqUb6-61" value="has-scene" style="edgeStyle=orthogonalEdgeStyle;shape=connector;rounded=1;orthogonalLoop=1;jettySize=auto;html=1;labelBackgroundColor=default;strokeColor=default;align=center;verticalAlign=middle;fontFamily=Helvetica;fontSize=11;fontColor=default;endArrow=classic;" parent="1" source="XKzM1crf-QcHamqGqUb6-45" target="XKzM1crf-QcHamqGqUb6-62" edge="1">
          <mxGeometry relative="1" as="geometry" />
        </mxCell>
        <mxCell id="XKzM1crf-QcHamqGqUb6-62" value="scn-pick:&lt;br&gt;Scene" style="rounded=1;whiteSpace=wrap;html=1;fillColor=#f8cecc;strokeColor=#b85450;" parent="1" vertex="1">
          <mxGeometry x="730" y="320" width="80" height="40" as="geometry" />
        </mxCell>
        <mxCell id="XKzM1crf-QcHamqGqUb6-63" value="cup:&lt;br&gt;Object" style="rounded=1;whiteSpace=wrap;html=1;fillColor=#d5e8d4;strokeColor=#82b366;" parent="1" vertex="1">
          <mxGeometry x="570" y="400" width="80" height="40" as="geometry" />
        </mxCell>
        <mxCell id="PuWQBQdgF5Zxe-uR59xl-2" value="ref-obj" style="edgeStyle=orthogonalEdgeStyle;shape=connector;rounded=1;jumpStyle=arc;orthogonalLoop=1;jettySize=auto;html=1;labelBackgroundColor=default;strokeColor=default;align=center;verticalAlign=middle;fontFamily=Helvetica;fontSize=11;fontColor=default;endArrow=classic;" parent="1" source="PuWQBQdgF5Zxe-uR59xl-1" target="XKzM1crf-QcHamqGqUb6-46" edge="1">
          <mxGeometry y="-10" relative="1" as="geometry">
            <mxPoint as="offset" />
          </mxGeometry>
        </mxCell>
        <mxCell id="PuWQBQdgF5Zxe-uR59xl-1" value="clause-obj-held-pick: FluentClause" style="rounded=1;whiteSpace=wrap;html=1;fillColor=#f8cecc;strokeColor=#b85450;" parent="1" vertex="1">
          <mxGeometry x="690" y="460" width="120" height="40" as="geometry" />
        </mxCell>
        <mxCell id="3QiBNkRlDue3tiZgigdy-1" value="clause-obj-not-crushed: FluentClause" style="rounded=1;whiteSpace=wrap;html=1;fillColor=#f8cecc;strokeColor=#b85450;" vertex="1" parent="1">
          <mxGeometry x="380" y="180" width="140" height="40" as="geometry" />
        </mxCell>
      </root>
    </mxGraphModel>
  </diagram>
  <diagram name="pickplace-variants" id="_hend_hQOFH-cJqBdJyB">
    <mxGraphModel dx="2074" dy="1214" grid="1" gridSize="10" guides="1" tooltips="1" connect="1" arrows="1" fold="1" page="1" pageScale="1" pageWidth="1169" pageHeight="827" math="0" shadow="0">
      <root>
        <mxCell id="SS0kdXAQDfgf3aglZ9Do-0" />
        <mxCell id="SS0kdXAQDfgf3aglZ9Do-1" parent="SS0kdXAQDfgf3aglZ9Do-0" />
        <mxCell id="isdf_vuQRhgLYx8Lvjxk-3" value="scenario-pickplace: Scenario" style="rounded=1;whiteSpace=wrap;html=1;fillColor=#f8cecc;strokeColor=#b85450;" parent="SS0kdXAQDfgf3aglZ9Do-1" vertex="1">
          <mxGeometry x="720" y="160" width="120" height="40" as="geometry" />
        </mxCell>
        <mxCell id="isdf_vuQRhgLYx8Lvjxk-7" value="of-scenario" style="edgeStyle=orthogonalEdgeStyle;shape=connector;rounded=1;orthogonalLoop=1;jettySize=auto;html=1;labelBackgroundColor=default;strokeColor=default;align=center;verticalAlign=middle;fontFamily=Helvetica;fontSize=11;fontColor=default;endArrow=classic;" parent="SS0kdXAQDfgf3aglZ9Do-1" source="isdf_vuQRhgLYx8Lvjxk-9" target="isdf_vuQRhgLYx8Lvjxk-3" edge="1">
          <mxGeometry relative="1" as="geometry">
            <mxPoint as="offset" />
          </mxGeometry>
        </mxCell>
        <mxCell id="isdf_vuQRhgLYx8Lvjxk-9" value="pickplace-tmpl: ScenarioTemplate" style="rounded=1;whiteSpace=wrap;html=1;fillColor=#f8cecc;strokeColor=#b85450;" parent="SS0kdXAQDfgf3aglZ9Do-1" vertex="1">
          <mxGeometry x="720" y="240" width="120" height="40" as="geometry" />
        </mxCell>
        <mxCell id="isdf_vuQRhgLYx8Lvjxk-18" value="target-obj: ScenarioVariable" style="rounded=1;whiteSpace=wrap;html=1;fillColor=#f8cecc;strokeColor=#b85450;" parent="SS0kdXAQDfgf3aglZ9Do-1" vertex="1">
          <mxGeometry x="720" y="320" width="120" height="40" as="geometry" />
        </mxCell>
        <mxCell id="N2yRlj0ksa7z3xiIWvLX-0" value="has-criteria" style="edgeStyle=orthogonalEdgeStyle;rounded=1;orthogonalLoop=1;jettySize=auto;html=1;labelBackgroundColor=default;" parent="SS0kdXAQDfgf3aglZ9Do-1" source="N2yRlj0ksa7z3xiIWvLX-1" target="N2yRlj0ksa7z3xiIWvLX-6" edge="1">
          <mxGeometry relative="1" as="geometry">
            <mxPoint as="offset" />
          </mxGeometry>
        </mxCell>
        <mxCell id="N2yRlj0ksa7z3xiIWvLX-1" value="us-single-arm: UserStory" style="rounded=1;whiteSpace=wrap;html=1;fillColor=#f8cecc;strokeColor=#b85450;" parent="SS0kdXAQDfgf3aglZ9Do-1" vertex="1">
          <mxGeometry x="560" y="160" width="100" height="40" as="geometry" />
        </mxCell>
        <mxCell id="N2yRlj0ksa7z3xiIWvLX-2" value="can-be" style="edgeStyle=orthogonalEdgeStyle;rounded=1;orthogonalLoop=1;jettySize=auto;html=1;labelBackgroundColor=default;" parent="SS0kdXAQDfgf3aglZ9Do-1" source="N2yRlj0ksa7z3xiIWvLX-3" target="N2yRlj0ksa7z3xiIWvLX-4" edge="1">
          <mxGeometry relative="1" as="geometry">
            <mxPoint as="offset" />
          </mxGeometry>
        </mxCell>
        <mxCell id="N2yRlj0ksa7z3xiIWvLX-9" value="of-variable" style="edgeStyle=orthogonalEdgeStyle;shape=connector;rounded=1;orthogonalLoop=1;jettySize=auto;html=1;labelBackgroundColor=default;strokeColor=default;align=center;verticalAlign=middle;fontFamily=Helvetica;fontSize=11;fontColor=default;endArrow=classic;jumpStyle=arc;" parent="SS0kdXAQDfgf3aglZ9Do-1" source="N2yRlj0ksa7z3xiIWvLX-3" target="isdf_vuQRhgLYx8Lvjxk-18" edge="1">
          <mxGeometry y="10" relative="1" as="geometry">
            <mxPoint as="offset" />
          </mxGeometry>
        </mxCell>
        <mxCell id="N2yRlj0ksa7z3xiIWvLX-3" value="obj-variation: TaskVariation" style="rounded=1;whiteSpace=wrap;html=1;fillColor=#ffe6cc;strokeColor=#d79b00;gradientColor=#F8CECC;" parent="SS0kdXAQDfgf3aglZ9Do-1" vertex="1">
          <mxGeometry x="560" y="320" width="100" height="40" as="geometry" />
        </mxCell>
        <mxCell id="N2yRlj0ksa7z3xiIWvLX-4" value="bottle:&lt;br&gt;Object" style="rounded=1;whiteSpace=wrap;html=1;fillColor=#d5e8d4;strokeColor=#82b366;" parent="SS0kdXAQDfgf3aglZ9Do-1" vertex="1">
          <mxGeometry x="560" y="400" width="100" height="40" as="geometry" />
        </mxCell>
        <mxCell id="N2yRlj0ksa7z3xiIWvLX-5" value="has-variation" style="edgeStyle=orthogonalEdgeStyle;rounded=1;orthogonalLoop=1;jettySize=auto;html=1;labelBackgroundColor=default;" parent="SS0kdXAQDfgf3aglZ9Do-1" source="N2yRlj0ksa7z3xiIWvLX-6" target="N2yRlj0ksa7z3xiIWvLX-3" edge="1">
          <mxGeometry relative="1" as="geometry">
            <Array as="points">
              <mxPoint x="607.5" y="340" />
              <mxPoint x="607.5" y="340" />
            </Array>
          </mxGeometry>
        </mxCell>
        <mxCell id="N2yRlj0ksa7z3xiIWvLX-7" value="of-template" style="edgeStyle=orthogonalEdgeStyle;rounded=0;orthogonalLoop=1;jettySize=auto;html=1;" parent="SS0kdXAQDfgf3aglZ9Do-1" source="N2yRlj0ksa7z3xiIWvLX-6" target="isdf_vuQRhgLYx8Lvjxk-9" edge="1">
          <mxGeometry y="20" relative="1" as="geometry">
            <mxPoint as="offset" />
          </mxGeometry>
        </mxCell>
        <mxCell id="agM3STa8OZmIkqwf7mNY-7" value="has-in-scene" style="edgeStyle=orthogonalEdgeStyle;shape=connector;rounded=1;orthogonalLoop=1;jettySize=auto;html=1;labelBackgroundColor=default;strokeColor=default;align=center;verticalAlign=middle;fontFamily=Helvetica;fontSize=11;fontColor=default;endArrow=classic;" parent="SS0kdXAQDfgf3aglZ9Do-1" source="N2yRlj0ksa7z3xiIWvLX-6" target="agM3STa8OZmIkqwf7mNY-0" edge="1">
          <mxGeometry x="0.3846" y="10" relative="1" as="geometry">
            <Array as="points">
              <mxPoint x="540" y="260" />
              <mxPoint x="540" y="480" />
              <mxPoint x="780" y="480" />
            </Array>
            <mxPoint as="offset" />
          </mxGeometry>
        </mxCell>
        <mxCell id="N2yRlj0ksa7z3xiIWvLX-6" value="pickplace-lab: ScenarioVariant" style="rounded=1;whiteSpace=wrap;html=1;fillColor=#f8cecc;strokeColor=#b85450;" parent="SS0kdXAQDfgf3aglZ9Do-1" vertex="1">
          <mxGeometry x="560" y="240" width="100" height="40" as="geometry" />
        </mxCell>
        <mxCell id="agM3STa8OZmIkqwf7mNY-2" value="has-obj" style="edgeStyle=orthogonalEdgeStyle;shape=connector;rounded=1;orthogonalLoop=1;jettySize=auto;html=1;labelBackgroundColor=default;strokeColor=default;align=center;verticalAlign=middle;fontFamily=Helvetica;fontSize=11;fontColor=default;endArrow=classic;" parent="SS0kdXAQDfgf3aglZ9Do-1" source="agM3STa8OZmIkqwf7mNY-0" target="N2yRlj0ksa7z3xiIWvLX-4" edge="1">
          <mxGeometry relative="1" as="geometry" />
        </mxCell>
        <mxCell id="agM3STa8OZmIkqwf7mNY-6" value="of-scene" style="edgeStyle=orthogonalEdgeStyle;shape=connector;rounded=1;orthogonalLoop=1;jettySize=auto;html=1;labelBackgroundColor=default;strokeColor=default;align=center;verticalAlign=middle;fontFamily=Helvetica;fontSize=11;fontColor=default;endArrow=classic;" parent="SS0kdXAQDfgf3aglZ9Do-1" source="agM3STa8OZmIkqwf7mNY-0" target="agM3STa8OZmIkqwf7mNY-4" edge="1">
          <mxGeometry x="0.1429" y="10" relative="1" as="geometry">
            <Array as="points">
              <mxPoint x="780" y="380" />
              <mxPoint x="910" y="380" />
            </Array>
            <mxPoint as="offset" />
          </mxGeometry>
        </mxCell>
        <mxCell id="agM3STa8OZmIkqwf7mNY-9" value="has-obj" style="edgeStyle=orthogonalEdgeStyle;shape=connector;rounded=1;orthogonalLoop=1;jettySize=auto;html=1;labelBackgroundColor=default;strokeColor=default;align=center;verticalAlign=middle;fontFamily=Helvetica;fontSize=11;fontColor=default;endArrow=classic;" parent="SS0kdXAQDfgf3aglZ9Do-1" source="agM3STa8OZmIkqwf7mNY-0" target="agM3STa8OZmIkqwf7mNY-8" edge="1">
          <mxGeometry y="10" relative="1" as="geometry">
            <Array as="points">
              <mxPoint x="900" y="420" />
            </Array>
            <mxPoint as="offset" />
          </mxGeometry>
        </mxCell>
        <mxCell id="agM3STa8OZmIkqwf7mNY-0" value="scn-has-obj-lab: SceneHasObjects" style="rounded=1;whiteSpace=wrap;html=1;fillColor=#d5e8d4;strokeColor=#82b366;gradientColor=#F8CECC;" parent="SS0kdXAQDfgf3aglZ9Do-1" vertex="1">
          <mxGeometry x="720" y="400" width="120" height="40" as="geometry" />
        </mxCell>
        <mxCell id="agM3STa8OZmIkqwf7mNY-5" value="has-scene" style="edgeStyle=orthogonalEdgeStyle;shape=connector;rounded=1;orthogonalLoop=1;jettySize=auto;html=1;labelBackgroundColor=default;strokeColor=default;align=center;verticalAlign=middle;fontFamily=Helvetica;fontSize=11;fontColor=default;endArrow=classic;" parent="SS0kdXAQDfgf3aglZ9Do-1" source="isdf_vuQRhgLYx8Lvjxk-9" target="agM3STa8OZmIkqwf7mNY-4" edge="1">
          <mxGeometry x="-0.3335" y="10" relative="1" as="geometry">
            <Array as="points">
              <mxPoint x="910" y="260" />
            </Array>
            <mxPoint as="offset" />
          </mxGeometry>
        </mxCell>
        <mxCell id="agM3STa8OZmIkqwf7mNY-4" value="scn-pickplace: Scene" style="rounded=1;whiteSpace=wrap;html=1;fillColor=#f8cecc;strokeColor=#b85450;" parent="SS0kdXAQDfgf3aglZ9Do-1" vertex="1">
          <mxGeometry x="860" y="280" width="100" height="40" as="geometry" />
        </mxCell>
        <mxCell id="agM3STa8OZmIkqwf7mNY-8" value="cup:&lt;br&gt;Object" style="rounded=1;whiteSpace=wrap;html=1;fillColor=#d5e8d4;strokeColor=#82b366;" parent="SS0kdXAQDfgf3aglZ9Do-1" vertex="1">
          <mxGeometry x="860" y="440" width="100" height="40" as="geometry" />
        </mxCell>
      </root>
    </mxGraphModel>
  </diagram>
</mxfile>
